<svg width="90" height="61" viewBox="0 0 90 61" fill="none" xmlns="http://www.w3.org/2000/svg">
<path d="M6.55002 47.494V12.1973H19.7863C22.4979 12.1973 24.7729 12.6683 26.6113 13.6105C28.4611 14.5527 29.8572 15.874 30.7993 17.5745C31.753 19.2635 32.2298 21.234 32.2298 23.486C32.2298 25.7495 31.7472 27.7143 30.7821 29.3803C29.8284 31.0348 28.4209 32.3159 26.5596 33.2236C24.6982 34.1199 22.4117 34.568 19.7001 34.568H10.2727V29.2597H18.8384C20.424 29.2597 21.7223 29.0413 22.7335 28.6047C23.7446 28.1566 24.4914 27.5075 24.974 26.6572C25.468 25.7955 25.7151 24.7384 25.7151 23.486C25.7151 22.2336 25.468 21.1651 24.974 20.2803C24.4799 19.3841 23.7273 18.7062 22.7162 18.2466C21.7051 17.7756 20.401 17.54 18.8039 17.54H12.9441V47.494H6.55002ZM24.7844 31.5002L33.5224 47.494H26.3872L17.8043 31.5002H24.7844ZM37.8397 47.494V21.0214H44.0787V47.494H37.8397ZM40.9764 17.2643C39.9883 17.2643 39.1381 16.9368 38.4257 16.2819C37.7133 15.6155 37.3571 14.8169 37.3571 13.8863C37.3571 12.9441 37.7133 12.1455 38.4257 11.4906C39.1381 10.8242 39.9883 10.491 40.9764 10.491C41.976 10.491 42.8263 10.8242 43.5272 11.4906C44.2395 12.1455 44.5957 12.9441 44.5957 13.8863C44.5957 14.8169 44.2395 15.6155 43.5272 16.2819C42.8263 16.9368 41.976 17.2643 40.9764 17.2643ZM82.3097 29.8456C82.3097 33.6488 81.5973 36.9061 80.1726 39.6177C78.7593 42.3178 76.829 44.386 74.3817 45.8222C71.9458 47.2585 69.1825 47.9766 66.0918 47.9766C63.001 47.9766 60.232 47.2585 57.7846 45.8222C55.3488 44.3745 53.4185 42.3006 51.9937 39.6005C50.5805 36.8889 49.8739 33.6373 49.8739 29.8456C49.8739 26.0425 50.5805 22.7909 51.9937 20.0908C53.4185 17.3792 55.3488 15.3053 57.7846 13.869C60.232 12.4328 63.001 11.7147 66.0918 11.7147C69.1825 11.7147 71.9458 12.4328 74.3817 13.869C76.829 15.3053 78.7593 17.3792 80.1726 20.0908C81.5973 22.7909 82.3097 26.0425 82.3097 29.8456ZM75.8811 29.8456C75.8811 27.1685 75.4617 24.9108 74.623 23.0724C73.7957 21.2225 72.6467 19.8265 71.176 18.8843C69.7053 17.9307 68.0106 17.4539 66.0918 17.4539C64.173 17.4539 62.4782 17.9307 61.0075 18.8843C59.5368 19.8265 58.3821 21.2225 57.5433 23.0724C56.7161 24.9108 56.3024 27.1685 56.3024 29.8456C56.3024 32.5228 56.7161 34.7863 57.5433 36.6361C58.3821 38.4745 59.5368 39.8705 61.0075 40.8242C62.4782 41.7663 64.173 42.2374 66.0918 42.2374C68.0106 42.2374 69.7053 41.7663 71.176 40.8242C72.6467 39.8705 73.7957 38.4745 74.623 36.6361C75.4617 34.7863 75.8811 32.5228 75.8811 29.8456Z" fill="#ED1C24"/>
<path d="M0.900697 58.5621V51.1241H3.41393C3.99745 51.1241 4.47443 51.2294 4.84488 51.4401C5.21775 51.6483 5.49377 51.9304 5.67294 52.2863C5.85211 52.6422 5.9417 53.0393 5.9417 53.4775C5.9417 53.9158 5.85211 54.3141 5.67294 54.6724C5.49619 55.0307 5.22259 55.3164 4.85214 55.5295C4.4817 55.7402 4.00713 55.8455 3.42846 55.8455H1.62707V55.0465H3.39941C3.79891 55.0465 4.11972 54.9775 4.36184 54.8395C4.60397 54.7015 4.77951 54.515 4.88846 54.2802C4.99984 54.0429 5.05553 53.7753 5.05553 53.4775C5.05553 53.1797 4.99984 52.9134 4.88846 52.6785C4.77951 52.4437 4.60276 52.2596 4.35821 52.1265C4.11367 51.9909 3.78922 51.9231 3.38488 51.9231H1.80139V58.5621H0.900697ZM8.91799 58.6928C8.56449 58.6928 8.24368 58.6263 7.95555 58.4931C7.66743 58.3575 7.43862 58.1626 7.26914 57.9084C7.09965 57.6517 7.01491 57.3418 7.01491 56.9786C7.01491 56.659 7.07786 56.3999 7.20376 56.2014C7.32967 56.0004 7.49794 55.8431 7.70859 55.7293C7.91924 55.6155 8.15167 55.5307 8.4059 55.475C8.66255 55.4169 8.92041 55.3709 9.17949 55.337C9.51846 55.2934 9.79327 55.2608 10.0039 55.239C10.217 55.2148 10.3719 55.1748 10.4688 55.1191C10.5681 55.0634 10.6177 54.9666 10.6177 54.8286V54.7995C10.6177 54.4412 10.5196 54.1627 10.3235 53.9642C10.1298 53.7656 9.83564 53.6664 9.44098 53.6664C9.03179 53.6664 8.71098 53.756 8.47854 53.9351C8.2461 54.1143 8.08267 54.3056 7.98824 54.509L7.17471 54.2184C7.31998 53.8794 7.51368 53.6155 7.7558 53.4267C8.00035 53.2354 8.26668 53.1022 8.55481 53.0272C8.84536 52.9497 9.13106 52.911 9.41192 52.911C9.59109 52.911 9.7969 52.9327 10.0293 52.9763C10.2642 53.0175 10.4906 53.1034 10.7085 53.2342C10.9288 53.3649 11.1116 53.5623 11.2569 53.8262C11.4022 54.0901 11.4748 54.4436 11.4748 54.8867V58.5621H10.6177V57.8067H10.5741C10.516 57.9277 10.4192 58.0573 10.2836 58.1953C10.148 58.3333 9.9676 58.4507 9.74242 58.5476C9.51725 58.6444 9.24244 58.6928 8.91799 58.6928ZM9.04874 57.9229C9.38771 57.9229 9.67342 57.8563 9.90585 57.7231C10.1407 57.59 10.3175 57.4181 10.4361 57.2074C10.5572 56.9968 10.6177 56.7752 10.6177 56.5428V55.7583C10.5814 55.8019 10.5015 55.8419 10.378 55.8782C10.2569 55.9121 10.1165 55.9423 9.9567 55.969C9.79932 55.9932 9.64557 56.015 9.49546 56.0343C9.34776 56.0513 9.22791 56.0658 9.1359 56.0779C8.91315 56.107 8.70492 56.1542 8.51123 56.2196C8.31995 56.2825 8.16499 56.3782 8.04635 56.5065C7.93013 56.6324 7.87202 56.8043 7.87202 57.0222C7.87202 57.32 7.98219 57.5452 8.20252 57.6977C8.42527 57.8478 8.70735 57.9229 9.04874 57.9229ZM13.0392 58.5621V52.9836H13.8673V53.8262H13.9254C14.0271 53.5502 14.2111 53.3262 14.4774 53.1543C14.7438 52.9824 15.044 52.8964 15.3781 52.8964C15.4411 52.8964 15.5198 52.8976 15.6142 52.9001C15.7086 52.9025 15.7801 52.9061 15.8285 52.911V53.7826C15.7994 53.7753 15.7328 53.7644 15.6287 53.7499C15.527 53.733 15.4193 53.7245 15.3055 53.7245C15.0343 53.7245 14.7922 53.7814 14.5791 53.8952C14.3685 54.0066 14.2014 54.1615 14.0779 54.3601C13.9569 54.5562 13.8963 54.7801 13.8963 55.032V58.5621H13.0392ZM18.941 58.6783C18.418 58.6783 17.9676 58.5548 17.5899 58.3079C17.2122 58.0609 16.9217 57.7207 16.7183 57.2873C16.5149 56.8539 16.4132 56.3588 16.4132 55.8019C16.4132 55.2353 16.5173 54.7354 16.7255 54.302C16.9362 53.8661 17.2292 53.5259 17.6045 53.2814C17.9822 53.0344 18.4228 52.911 18.9264 52.911C19.3187 52.911 19.6722 52.9836 19.9869 53.1289C20.3017 53.2741 20.5596 53.4775 20.7605 53.739C20.9615 54.0005 21.0862 54.3056 21.1346 54.6542H20.2775C20.2121 54.4 20.0668 54.1748 19.8417 53.9787C19.6189 53.7802 19.3187 53.6809 18.941 53.6809C18.6068 53.6809 18.3139 53.7681 18.0621 53.9424C17.8127 54.1143 17.6178 54.3576 17.4773 54.6724C17.3393 54.9847 17.2703 55.3516 17.2703 55.7728C17.2703 56.2038 17.3381 56.5791 17.4737 56.8987C17.6117 57.2183 17.8054 57.4665 18.0548 57.6432C18.3066 57.82 18.602 57.9084 18.941 57.9084C19.1637 57.9084 19.3659 57.8696 19.5475 57.7922C19.7291 57.7147 19.8828 57.6033 20.0087 57.458C20.1346 57.3127 20.2242 57.1384 20.2775 56.935H21.1346C21.0862 57.2643 20.9663 57.5609 20.7751 57.8248C20.5862 58.0863 20.3356 58.2946 20.0233 58.4495C19.7133 58.6021 19.3526 58.6783 18.941 58.6783ZM24.7265 58.6783C24.189 58.6783 23.7253 58.5597 23.3355 58.3224C22.9481 58.0827 22.6491 57.7486 22.4384 57.32C22.2302 56.889 22.1261 56.3878 22.1261 55.8164C22.1261 55.245 22.2302 54.7414 22.4384 54.3056C22.6491 53.8673 22.9421 53.5259 23.3173 53.2814C23.6951 53.0344 24.1357 52.911 24.6393 52.911C24.9299 52.911 25.2168 52.9594 25.5001 53.0562C25.7834 53.1531 26.0412 53.3105 26.2737 53.5284C26.5061 53.7439 26.6913 54.0296 26.8293 54.3855C26.9673 54.7414 27.0364 55.1796 27.0364 55.7002V56.0634H22.7363V55.3225H26.1647C26.1647 55.0077 26.1018 54.7269 25.9759 54.4799C25.8524 54.2329 25.6756 54.038 25.4456 53.8952C25.218 53.7523 24.9493 53.6809 24.6393 53.6809C24.2979 53.6809 24.0026 53.7656 23.7532 53.9351C23.5062 54.1022 23.3161 54.3201 23.183 54.5889C23.0498 54.8576 22.9832 55.1457 22.9832 55.4532V55.9472C22.9832 56.3685 23.0559 56.7256 23.2011 57.0186C23.3488 57.3091 23.5534 57.5307 23.8149 57.6832C24.0764 57.8333 24.3803 57.9084 24.7265 57.9084C24.9517 57.9084 25.1551 57.8769 25.3367 57.8139C25.5207 57.7486 25.6793 57.6517 25.8124 57.5234C25.9456 57.3926 26.0485 57.2304 26.1211 57.0367L26.9492 57.2692C26.862 57.55 26.7155 57.797 26.5097 58.0101C26.3039 58.2207 26.0497 58.3854 25.747 58.504C25.4444 58.6202 25.1042 58.6783 24.7265 58.6783ZM29.1973 51.1241V58.5621H28.3402V51.1241H29.1973ZM35.2852 58.6928C34.9317 58.6928 34.6109 58.6263 34.3227 58.4931C34.0346 58.3575 33.8058 58.1626 33.6363 57.9084C33.4668 57.6517 33.3821 57.3418 33.3821 56.9786C33.3821 56.659 33.445 56.3999 33.5709 56.2014C33.6969 56.0004 33.8651 55.8431 34.0758 55.7293C34.2864 55.6155 34.5189 55.5307 34.7731 55.475C35.0297 55.4169 35.2876 55.3709 35.5467 55.337C35.8856 55.2934 36.1605 55.2608 36.3711 55.239C36.5842 55.2148 36.7391 55.1748 36.836 55.1191C36.9352 55.0634 36.9849 54.9666 36.9849 54.8286V54.7995C36.9849 54.4412 36.8868 54.1627 36.6907 53.9642C36.497 53.7656 36.2028 53.6664 35.8082 53.6664C35.399 53.6664 35.0782 53.756 34.8457 53.9351C34.6133 54.1143 34.4499 54.3056 34.3554 54.509L33.5419 54.2184C33.6872 53.8794 33.8809 53.6155 34.123 53.4267C34.3675 53.2354 34.6339 53.1022 34.922 53.0272C35.2125 52.9497 35.4982 52.911 35.7791 52.911C35.9583 52.911 36.1641 52.9327 36.3965 52.9763C36.6314 53.0175 36.8578 53.1034 37.0757 53.2342C37.296 53.3649 37.4788 53.5623 37.6241 53.8262C37.7694 54.0901 37.842 54.4436 37.842 54.8867V58.5621H36.9849V57.8067H36.9413C36.8832 57.9277 36.7863 58.0573 36.6508 58.1953C36.5152 58.3333 36.3348 58.4507 36.1096 58.5476C35.8844 58.6444 35.6096 58.6928 35.2852 58.6928ZM35.4159 57.9229C35.7549 57.9229 36.0406 57.8563 36.273 57.7231C36.5079 57.59 36.6847 57.4181 36.8033 57.2074C36.9244 56.9968 36.9849 56.7752 36.9849 56.5428V55.7583C36.9486 55.8019 36.8687 55.8419 36.7452 55.8782C36.6241 55.9121 36.4837 55.9423 36.3239 55.969C36.1665 55.9932 36.0128 56.015 35.8626 56.0343C35.7149 56.0513 35.5951 56.0658 35.5031 56.0779C35.2803 56.107 35.0721 56.1542 34.8784 56.2196C34.6871 56.2825 34.5322 56.3782 34.4135 56.5065C34.2973 56.6324 34.2392 56.8043 34.2392 57.0222C34.2392 57.32 34.3494 57.5452 34.5697 57.6977C34.7925 57.8478 35.0745 57.9229 35.4159 57.9229ZM40.2635 55.2063V58.5621H39.4064V52.9836H40.2345V53.8552H40.3071C40.4379 53.5719 40.6364 53.3444 40.9027 53.1724C41.1691 52.9981 41.5129 52.911 41.9342 52.911C42.3119 52.911 42.6424 52.9884 42.9257 53.1434C43.209 53.2959 43.4293 53.5284 43.5867 53.8407C43.744 54.1506 43.8227 54.5429 43.8227 55.0174V58.5621H42.9656V55.0755C42.9656 54.6373 42.8518 54.2959 42.6242 54.0514C42.3966 53.8044 42.0843 53.6809 41.6872 53.6809C41.4136 53.6809 41.1691 53.7402 40.9536 53.8589C40.7405 53.9775 40.5722 54.1506 40.4488 54.3782C40.3253 54.6058 40.2635 54.8818 40.2635 55.2063ZM47.4954 58.6783C47.0306 58.6783 46.6202 58.5609 46.2642 58.326C45.9083 58.0888 45.6299 57.7546 45.4289 57.3236C45.228 56.8902 45.1275 56.3782 45.1275 55.7874C45.1275 55.2014 45.228 54.693 45.4289 54.262C45.6299 53.831 45.9095 53.4981 46.2679 53.2632C46.6262 53.0284 47.0402 52.911 47.51 52.911C47.8731 52.911 48.1601 52.9715 48.3707 53.0925C48.5838 53.2112 48.746 53.3468 48.8574 53.4993C48.9712 53.6494 49.0596 53.7729 49.1225 53.8698H49.1951V51.1241H50.0523V58.5621H49.2242V57.705H49.1225C49.0596 57.8067 48.97 57.935 48.8537 58.09C48.7375 58.2425 48.5717 58.3793 48.3562 58.5004C48.1407 58.619 47.8538 58.6783 47.4954 58.6783ZM47.6117 57.9084C47.9555 57.9084 48.246 57.8188 48.4833 57.6396C48.7206 57.458 48.901 57.2074 49.0244 56.8878C49.1479 56.5658 49.2097 56.1941 49.2097 55.7728C49.2097 55.3564 49.1491 54.992 49.0281 54.6797C48.907 54.3649 48.7278 54.1204 48.4906 53.946C48.2533 53.7693 47.9603 53.6809 47.6117 53.6809C47.2485 53.6809 46.9458 53.7741 46.7037 53.9606C46.464 54.1446 46.2836 54.3952 46.1625 54.7123C46.0439 55.0271 45.9846 55.3806 45.9846 55.7728C45.9846 56.1699 46.0451 56.5307 46.1662 56.8551C46.2897 57.1772 46.4713 57.4338 46.711 57.6251C46.9531 57.8139 47.2533 57.9084 47.6117 57.9084ZM60.719 53.4485H59.8183C59.765 53.1894 59.6718 52.9618 59.5386 52.7657C59.4079 52.5696 59.2481 52.4049 59.0592 52.2717C58.8728 52.1362 58.6658 52.0345 58.4382 51.9667C58.2106 51.8989 57.9733 51.865 57.7263 51.865C57.276 51.865 56.868 51.9788 56.5024 52.2064C56.1392 52.434 55.8499 52.7693 55.6344 53.2124C55.4213 53.6555 55.3148 54.199 55.3148 54.8431C55.3148 55.4871 55.4213 56.0307 55.6344 56.4738C55.8499 56.9169 56.1392 57.2522 56.5024 57.4798C56.868 57.7074 57.276 57.8212 57.7263 57.8212C57.9733 57.8212 58.2106 57.7873 58.4382 57.7195C58.6658 57.6517 58.8728 57.5512 59.0592 57.4181C59.2481 57.2825 59.4079 57.1166 59.5386 56.9205C59.6718 56.722 59.765 56.4944 59.8183 56.2377H60.719C60.6512 56.6179 60.5277 56.958 60.3485 57.2583C60.1694 57.5585 59.9466 57.8139 59.6803 58.0246C59.4139 58.2328 59.1149 58.3914 58.7832 58.5004C58.4539 58.6093 58.1016 58.6638 57.7263 58.6638C57.092 58.6638 56.5278 58.5088 56.0339 58.1989C55.54 57.889 55.1514 57.4483 54.8681 56.8769C54.5848 56.3055 54.4432 55.6276 54.4432 54.8431C54.4432 54.0586 54.5848 53.3807 54.8681 52.8093C55.1514 52.2379 55.54 51.7972 56.0339 51.4873C56.5278 51.1774 57.092 51.0224 57.7263 51.0224C58.1016 51.0224 58.4539 51.0769 58.7832 51.1858C59.1149 51.2948 59.4139 51.4546 59.6803 51.6652C59.9466 51.8735 60.1694 52.1277 60.3485 52.4279C60.5277 52.7257 60.6512 53.0659 60.719 53.4485ZM64.3245 58.6783C63.8209 58.6783 63.379 58.5585 62.9989 58.3188C62.6212 58.0791 62.3258 57.7437 62.1127 57.3127C61.9021 56.8818 61.7967 56.3782 61.7967 55.8019C61.7967 55.2208 61.9021 54.7136 62.1127 54.2802C62.3258 53.8468 62.6212 53.5102 62.9989 53.2705C63.379 53.0308 63.8209 52.911 64.3245 52.911C64.8281 52.911 65.2688 53.0308 65.6465 53.2705C66.0266 53.5102 66.322 53.8468 66.5327 54.2802C66.7457 54.7136 66.8523 55.2208 66.8523 55.8019C66.8523 56.3782 66.7457 56.8818 66.5327 57.3127C66.322 57.7437 66.0266 58.0791 65.6465 58.3188C65.2688 58.5585 64.8281 58.6783 64.3245 58.6783ZM64.3245 57.9084C64.707 57.9084 65.0218 57.8103 65.2688 57.6142C65.5157 57.4181 65.6985 57.1602 65.8172 56.8406C65.9358 56.521 65.9951 56.1748 65.9951 55.8019C65.9951 55.429 65.9358 55.0816 65.8172 54.7596C65.6985 54.4375 65.5157 54.1773 65.2688 53.9787C65.0218 53.7802 64.707 53.6809 64.3245 53.6809C63.9419 53.6809 63.6272 53.7802 63.3802 53.9787C63.1332 54.1773 62.9504 54.4375 62.8318 54.7596C62.7132 55.0816 62.6538 55.429 62.6538 55.8019C62.6538 56.1748 62.7132 56.521 62.8318 56.8406C62.9504 57.1602 63.1332 57.4181 63.3802 57.6142C63.6272 57.8103 63.9419 57.9084 64.3245 57.9084ZM71.6763 56.2813V52.9836H72.5334V58.5621H71.6763V57.6178H71.6181C71.4874 57.9011 71.284 58.142 71.008 58.3406C70.732 58.5367 70.3833 58.6347 69.962 58.6347C69.6134 58.6347 69.3035 58.5585 69.0323 58.4059C68.7611 58.251 68.548 58.0185 68.3931 57.7086C68.2381 57.3963 68.1606 57.0028 68.1606 56.5283V52.9836H69.0177V56.4702C69.0177 56.8769 69.1315 57.2014 69.3591 57.4435C69.5892 57.6856 69.8821 57.8067 70.238 57.8067C70.4511 57.8067 70.6678 57.7522 70.8881 57.6432C71.1109 57.5343 71.2973 57.3672 71.4474 57.1421C71.6 56.9169 71.6763 56.63 71.6763 56.2813ZM74.1032 58.5621V52.9836H74.9313V53.8262H74.9894C75.0911 53.5502 75.2751 53.3262 75.5414 53.1543C75.8078 52.9824 76.108 52.8964 76.4421 52.8964C76.5051 52.8964 76.5838 52.8976 76.6782 52.9001C76.7726 52.9025 76.8441 52.9061 76.8925 52.911V53.7826C76.8634 53.7753 76.7969 53.7644 76.6927 53.7499C76.591 53.733 76.4833 53.7245 76.3695 53.7245C76.0983 53.7245 75.8562 53.7814 75.6431 53.8952C75.4325 54.0066 75.2654 54.1615 75.1419 54.3601C75.0209 54.5562 74.9603 54.7801 74.9603 55.032V58.5621H74.1032ZM77.9085 58.5621V52.9836H78.7656V58.5621H77.9085ZM78.3443 52.0538C78.1773 52.0538 78.0332 51.9969 77.9121 51.8831C77.7935 51.7693 77.7342 51.6325 77.7342 51.4727C77.7342 51.3129 77.7935 51.1761 77.9121 51.0623C78.0332 50.9485 78.1773 50.8916 78.3443 50.8916C78.5114 50.8916 78.6542 50.9485 78.7729 51.0623C78.8939 51.1761 78.9545 51.3129 78.9545 51.4727C78.9545 51.6325 78.8939 51.7693 78.7729 51.8831C78.6542 51.9969 78.5114 52.0538 78.3443 52.0538ZM82.6744 58.6783C82.1369 58.6783 81.6732 58.5597 81.2834 58.3224C80.896 58.0827 80.597 57.7486 80.3863 57.32C80.1781 56.889 80.074 56.3878 80.074 55.8164C80.074 55.245 80.1781 54.7414 80.3863 54.3056C80.597 53.8673 80.8899 53.5259 81.2652 53.2814C81.6429 53.0344 82.0836 52.911 82.5872 52.911C82.8778 52.911 83.1647 52.9594 83.448 53.0562C83.7312 53.1531 83.9891 53.3105 84.2215 53.5284C84.454 53.7439 84.6392 54.0296 84.7772 54.3855C84.9152 54.7414 84.9842 55.1796 84.9842 55.7002V56.0634H80.6841V55.3225H84.1126C84.1126 55.0077 84.0496 54.7269 83.9237 54.4799C83.8003 54.2329 83.6235 54.038 83.3935 53.8952C83.1659 53.7523 82.8971 53.6809 82.5872 53.6809C82.2458 53.6809 81.9504 53.7656 81.701 53.9351C81.4541 54.1022 81.264 54.3201 81.1308 54.5889C80.9977 54.8576 80.9311 55.1457 80.9311 55.4532V55.9472C80.9311 56.3685 81.0037 56.7256 81.149 57.0186C81.2967 57.3091 81.5013 57.5307 81.7628 57.6832C82.0243 57.8333 82.3281 57.9084 82.6744 57.9084C82.8996 57.9084 83.1029 57.8769 83.2845 57.8139C83.4685 57.7486 83.6271 57.6517 83.7603 57.5234C83.8935 57.3926 83.9964 57.2304 84.069 57.0367L84.8971 57.2692C84.8099 57.55 84.6634 57.797 84.4576 58.0101C84.2518 58.2207 83.9976 58.3854 83.6949 58.504C83.3923 58.6202 83.0521 58.6783 82.6744 58.6783ZM86.2881 58.5621V52.9836H87.1161V53.8262H87.1742C87.2759 53.5502 87.4599 53.3262 87.7263 53.1543C87.9926 52.9824 88.2928 52.8964 88.627 52.8964C88.6899 52.8964 88.7686 52.8976 88.863 52.9001C88.9575 52.9025 89.0289 52.9061 89.0773 52.911V53.7826C89.0483 53.7753 88.9817 53.7644 88.8776 53.7499C88.7759 53.733 88.6681 53.7245 88.5543 53.7245C88.2832 53.7245 88.041 53.7814 87.828 53.8952C87.6173 54.0066 87.4503 54.1615 87.3268 54.3601C87.2057 54.5562 87.1452 54.7801 87.1452 55.032V58.5621H86.2881Z" fill="#424242"/>
</svg>
