<svg width="1065" height="477" viewBox="0 0 1065 477" fill="none" xmlns="http://www.w3.org/2000/svg">
<rect width="1065" height="477" rx="10" fill="white"/>
<path d="M71 241L208.5 297.5L315 231L449 213.5L537 122.5L619.5 270.5L738 155.5L863 253.5L962.5 223.5L997 93L1039 45" stroke="#ED1C24" stroke-width="3"/>
<path d="M71 241L208.5 297.5L315 231L449 213.5L537 122.5L619.5 270.5L738 155.5L863 253.5L962.5 223.5L997 93L1039 45V411H724H71V241Z" fill="url(#paint0_linear_1_303)"/>
<circle cx="533" cy="122" r="8" fill="#950000" stroke="white" stroke-width="4"/>
<path d="M21.6428 63L27.2102 51.9801V51.8906H20.7479V49.9091H29.6648V51.9354L24.1037 63H21.6428ZM36.2853 63.2493C35.2328 63.2493 34.3294 62.983 33.5751 62.4503C32.8251 61.9134 32.2477 61.1399 31.8429 60.13C31.4423 59.1158 31.242 57.8949 31.242 56.4673C31.2463 55.0398 31.4487 53.8253 31.8493 52.8239C32.2541 51.8182 32.8315 51.0511 33.5815 50.5227C34.3358 49.9943 35.237 49.7301 36.2853 49.7301C37.3336 49.7301 38.2349 49.9943 38.9892 50.5227C39.7434 51.0511 40.3208 51.8182 40.7214 52.8239C41.1262 53.8295 41.3287 55.044 41.3287 56.4673C41.3287 57.8991 41.1262 59.1222 40.7214 60.1364C40.3208 61.1463 39.7434 61.9176 38.9892 62.4503C38.2392 62.983 37.3379 63.2493 36.2853 63.2493ZM36.2853 61.2486C37.1035 61.2486 37.7491 60.8459 38.2221 60.0405C38.6994 59.2308 38.938 58.0398 38.938 56.4673C38.938 55.4276 38.8294 54.554 38.612 53.8466C38.3947 53.1392 38.0879 52.6065 37.6916 52.2486C37.2953 51.8864 36.8265 51.7053 36.2853 51.7053C35.4714 51.7053 34.8279 52.1101 34.3549 52.9197C33.8819 53.7251 33.6433 54.9077 33.639 56.4673C33.6348 57.5114 33.7392 58.3892 33.9522 59.1009C34.1696 59.8125 34.4764 60.3494 34.8727 60.7116C35.269 61.0696 35.7399 61.2486 36.2853 61.2486ZM45.5874 59.919L45.581 57.1257H45.9517L49.4801 53.1818H52.1839L47.8438 58.0142H47.3643L45.5874 59.919ZM43.478 63V49.9091H45.7919V63H43.478ZM49.6399 63L46.4439 58.532L48.0036 56.902L52.4077 63H49.6399Z" fill="#424242"/>
<path d="M25.9574 113.179C25.331 113.175 24.7195 113.066 24.1229 112.853C23.5263 112.636 22.9893 112.284 22.5121 111.798C22.0348 111.308 21.6555 110.658 21.3743 109.849C21.093 109.035 20.9545 108.027 20.9588 106.825C20.9588 105.705 21.0781 104.705 21.3168 103.827C21.5554 102.95 21.8984 102.208 22.3459 101.603C22.7933 100.994 23.3324 100.529 23.9631 100.21C24.598 99.8899 25.3075 99.7301 26.0916 99.7301C26.9141 99.7301 27.6428 99.892 28.2777 100.216C28.9169 100.54 29.4325 100.983 29.8246 101.545C30.2166 102.104 30.4595 102.734 30.5533 103.438H28.2202C28.1009 102.935 27.8558 102.534 27.4851 102.236C27.1186 101.933 26.6541 101.782 26.0916 101.782C25.1839 101.782 24.4851 102.176 23.995 102.964C23.5092 103.753 23.2642 104.835 23.2599 106.212H23.3494C23.5582 105.837 23.8288 105.515 24.1612 105.246C24.4936 104.978 24.8686 104.771 25.2862 104.626C25.7081 104.477 26.1534 104.403 26.6222 104.403C27.3892 104.403 28.0774 104.586 28.6868 104.952C29.3004 105.319 29.7862 105.824 30.1442 106.467C30.5021 107.107 30.679 107.839 30.6747 108.666C30.679 109.527 30.483 110.3 30.0866 110.987C29.6903 111.668 29.1385 112.205 28.4311 112.597C27.7237 112.989 26.8991 113.183 25.9574 113.179ZM25.9446 111.261C26.4091 111.261 26.8246 111.148 27.1911 110.923C27.5575 110.697 27.8473 110.392 28.0604 110.009C28.2734 109.625 28.3778 109.195 28.3736 108.717C28.3778 108.249 28.2756 107.825 28.0668 107.445C27.8622 107.066 27.5788 106.766 27.2166 106.544C26.8544 106.322 26.4411 106.212 25.9766 106.212C25.6314 106.212 25.3097 106.278 25.0114 106.41C24.7131 106.542 24.4531 106.725 24.2315 106.96C24.0099 107.19 23.8352 107.458 23.7074 107.765C23.5838 108.067 23.5199 108.391 23.5156 108.737C23.5199 109.192 23.6264 109.612 23.8352 109.996C24.044 110.379 24.3317 110.686 24.6982 110.916C25.0646 111.146 25.4801 111.261 25.9446 111.261ZM37.674 113.249C36.6214 113.249 35.718 112.983 34.9638 112.45C34.2138 111.913 33.6364 111.14 33.2315 110.13C32.831 109.116 32.6307 107.895 32.6307 106.467C32.6349 105.04 32.8374 103.825 33.2379 102.824C33.6428 101.818 34.2202 101.051 34.9702 100.523C35.7244 99.9943 36.6257 99.7301 37.674 99.7301C38.7223 99.7301 39.6236 99.9943 40.3778 100.523C41.1321 101.051 41.7095 101.818 42.1101 102.824C42.5149 103.83 42.7173 105.044 42.7173 106.467C42.7173 107.899 42.5149 109.122 42.1101 110.136C41.7095 111.146 41.1321 111.918 40.3778 112.45C39.6278 112.983 38.7266 113.249 37.674 113.249ZM37.674 111.249C38.4922 111.249 39.1378 110.846 39.6108 110.04C40.0881 109.231 40.3267 108.04 40.3267 106.467C40.3267 105.428 40.218 104.554 40.0007 103.847C39.7834 103.139 39.4766 102.607 39.0803 102.249C38.6839 101.886 38.2152 101.705 37.674 101.705C36.8601 101.705 36.2166 102.11 35.7436 102.92C35.2706 103.725 35.032 104.908 35.0277 106.467C35.0234 107.511 35.1278 108.389 35.3409 109.101C35.5582 109.812 35.8651 110.349 36.2614 110.712C36.6577 111.07 37.1286 111.249 37.674 111.249ZM46.976 109.919L46.9696 107.126H47.3404L50.8688 103.182H53.5726L49.2324 108.014H48.753L46.976 109.919ZM44.8667 113V99.9091H47.1806V113H44.8667ZM51.0286 113L47.8326 108.532L49.3922 106.902L53.7963 113H51.0286Z" fill="#424242"/>
<path d="M25.7145 163.179C24.8622 163.179 24.0994 163.019 23.4261 162.7C22.7528 162.376 22.218 161.933 21.8217 161.37C21.4297 160.808 21.2209 160.164 21.1953 159.44H23.4964C23.5391 159.977 23.7713 160.415 24.1932 160.756C24.6151 161.093 25.1222 161.261 25.7145 161.261C26.179 161.261 26.5923 161.155 26.9545 160.942C27.3168 160.729 27.6023 160.433 27.8111 160.053C28.0199 159.674 28.1222 159.241 28.1179 158.756C28.1222 158.261 28.0178 157.822 27.8047 157.439C27.5916 157.055 27.2997 156.755 26.929 156.538C26.5582 156.316 26.1321 156.205 25.6506 156.205C25.2585 156.201 24.8729 156.273 24.4936 156.423C24.1143 156.572 23.8139 156.768 23.5923 157.011L21.451 156.659L22.1349 149.909H29.7287V151.891H24.0973L23.7202 155.362H23.7969C24.0398 155.076 24.3828 154.839 24.826 154.652C25.2692 154.46 25.755 154.364 26.2834 154.364C27.076 154.364 27.7834 154.552 28.4055 154.927C29.0277 155.298 29.5178 155.809 29.8757 156.461C30.2337 157.113 30.4126 157.859 30.4126 158.698C30.4126 159.563 30.2124 160.335 29.8118 161.012C29.4155 161.685 28.8636 162.216 28.1562 162.604C27.4531 162.987 26.6392 163.179 25.7145 163.179ZM37.3928 163.249C36.3402 163.249 35.4368 162.983 34.6825 162.45C33.9325 161.913 33.3551 161.14 32.9503 160.13C32.5497 159.116 32.3494 157.895 32.3494 156.467C32.3537 155.04 32.5561 153.825 32.9567 152.824C33.3615 151.818 33.9389 151.051 34.6889 150.523C35.4432 149.994 36.3445 149.73 37.3928 149.73C38.4411 149.73 39.3423 149.994 40.0966 150.523C40.8509 151.051 41.4283 151.818 41.8288 152.824C42.2337 153.83 42.4361 155.044 42.4361 156.467C42.4361 157.899 42.2337 159.122 41.8288 160.136C41.4283 161.146 40.8509 161.918 40.0966 162.45C39.3466 162.983 38.4453 163.249 37.3928 163.249ZM37.3928 161.249C38.2109 161.249 38.8565 160.846 39.3295 160.04C39.8068 159.231 40.0455 158.04 40.0455 156.467C40.0455 155.428 39.9368 154.554 39.7195 153.847C39.5021 153.139 39.1953 152.607 38.799 152.249C38.4027 151.886 37.9339 151.705 37.3928 151.705C36.5788 151.705 35.9354 152.11 35.4624 152.92C34.9893 153.725 34.7507 154.908 34.7464 156.467C34.7422 157.511 34.8466 158.389 35.0597 159.101C35.277 159.812 35.5838 160.349 35.9801 160.712C36.3764 161.07 36.8473 161.249 37.3928 161.249ZM46.6948 159.919L46.6884 157.126H47.0591L50.5875 153.182H53.2914L48.9512 158.014H48.4718L46.6948 159.919ZM44.5854 163V149.909H46.8993V163H44.5854ZM50.7473 163L47.5513 158.532L49.111 156.902L53.5151 163H50.7473Z" fill="#424242"/>
<path d="M20.9268 210.571V208.685L26.4815 199.909H28.054V202.594H27.0952L23.3558 208.519V208.621H31.1094V210.571H20.9268ZM27.1719 213V209.996L27.1974 209.152V199.909H29.4347V213H27.1719ZM37.9904 213.249C36.9379 213.249 36.0344 212.983 35.2802 212.45C34.5302 211.913 33.9528 211.14 33.5479 210.13C33.1474 209.116 32.9471 207.895 32.9471 206.467C32.9513 205.04 33.1538 203.825 33.5543 202.824C33.9592 201.818 34.5366 201.051 35.2866 200.523C36.0408 199.994 36.9421 199.73 37.9904 199.73C39.0387 199.73 39.94 199.994 40.6942 200.523C41.4485 201.051 42.0259 201.818 42.4265 202.824C42.8313 203.83 43.0337 205.044 43.0337 206.467C43.0337 207.899 42.8313 209.122 42.4265 210.136C42.0259 211.146 41.4485 211.918 40.6942 212.45C39.9442 212.983 39.043 213.249 37.9904 213.249ZM37.9904 211.249C38.8086 211.249 39.4542 210.846 39.9272 210.04C40.4045 209.231 40.6431 208.04 40.6431 206.467C40.6431 205.428 40.5344 204.554 40.3171 203.847C40.0998 203.139 39.793 202.607 39.3967 202.249C39.0004 201.886 38.5316 201.705 37.9904 201.705C37.1765 201.705 36.533 202.11 36.06 202.92C35.587 203.725 35.3484 204.908 35.3441 206.467C35.3398 207.511 35.4442 208.389 35.6573 209.101C35.8746 209.812 36.1815 210.349 36.5778 210.712C36.9741 211.07 37.445 211.249 37.9904 211.249ZM47.2924 209.919L47.286 207.126H47.6568L51.1852 203.182H53.889L49.5488 208.014H49.0694L47.2924 209.919ZM45.1831 213V199.909H47.497V213H45.1831ZM51.345 213L48.149 208.532L49.7086 206.902L54.1127 213H51.345Z" fill="#424242"/>
<path d="M25.8615 263.179C24.9411 263.179 24.1229 263.021 23.407 262.706C22.6953 262.391 22.1328 261.952 21.7195 261.389C21.3061 260.827 21.0866 260.177 21.0611 259.44H23.4645C23.4858 259.793 23.603 260.102 23.8161 260.366C24.0291 260.626 24.3125 260.829 24.6662 260.974C25.0199 261.119 25.4162 261.191 25.8551 261.191C26.3239 261.191 26.7393 261.11 27.1016 260.948C27.4638 260.782 27.7472 260.552 27.9517 260.258C28.1563 259.964 28.2564 259.625 28.2521 259.241C28.2564 258.845 28.1541 258.496 27.9453 258.193C27.7365 257.891 27.4339 257.654 27.0376 257.484C26.6456 257.313 26.1726 257.228 25.6186 257.228H24.4616V255.4H25.6186C26.0746 255.4 26.473 255.321 26.8139 255.163C27.1591 255.006 27.4297 254.784 27.6257 254.499C27.8217 254.209 27.9176 253.874 27.9134 253.495C27.9176 253.124 27.8345 252.803 27.6641 252.53C27.4979 252.253 27.2614 252.038 26.9545 251.884C26.652 251.731 26.2962 251.654 25.8871 251.654C25.4865 251.654 25.1158 251.727 24.7749 251.871C24.4339 252.016 24.1591 252.223 23.9503 252.491C23.7415 252.756 23.6307 253.071 23.6179 253.438H21.3359C21.353 252.705 21.5639 252.061 21.9688 251.507C22.3778 250.949 22.9233 250.514 23.6051 250.203C24.2869 249.888 25.0518 249.73 25.8999 249.73C26.7734 249.73 27.532 249.894 28.1754 250.222C28.8232 250.546 29.3239 250.983 29.6776 251.533C30.0313 252.082 30.2081 252.69 30.2081 253.354C30.2124 254.092 29.995 254.71 29.5561 255.208C29.1214 255.707 28.5504 256.033 27.843 256.186V256.288C28.7635 256.416 29.4688 256.757 29.9588 257.311C30.4531 257.861 30.6982 258.545 30.6939 259.363C30.6939 260.096 30.4851 260.752 30.0675 261.332C29.6541 261.907 29.0831 262.359 28.3544 262.687C27.63 263.015 26.799 263.179 25.8615 263.179ZM37.7267 263.249C36.6742 263.249 35.7708 262.983 35.0165 262.45C34.2665 261.913 33.6891 261.14 33.2843 260.13C32.8837 259.116 32.6834 257.895 32.6834 256.467C32.6877 255.04 32.8901 253.825 33.2907 252.824C33.6955 251.818 34.2729 251.051 35.0229 250.523C35.7772 249.994 36.6784 249.73 37.7267 249.73C38.775 249.73 39.6763 249.994 40.4306 250.523C41.1848 251.051 41.7623 251.818 42.1628 252.824C42.5676 253.83 42.7701 255.044 42.7701 256.467C42.7701 257.899 42.5676 259.122 42.1628 260.136C41.7623 261.146 41.1848 261.918 40.4306 262.45C39.6806 262.983 38.7793 263.249 37.7267 263.249ZM37.7267 261.249C38.5449 261.249 39.1905 260.846 39.6635 260.04C40.1408 259.231 40.3794 258.04 40.3794 256.467C40.3794 255.428 40.2708 254.554 40.0534 253.847C39.8361 253.139 39.5293 252.607 39.133 252.249C38.7367 251.886 38.2679 251.705 37.7267 251.705C36.9128 251.705 36.2694 252.11 35.7963 252.92C35.3233 253.725 35.0847 254.908 35.0804 256.467C35.0762 257.511 35.1806 258.389 35.3936 259.101C35.611 259.812 35.9178 260.349 36.3141 260.712C36.7104 261.07 37.1813 261.249 37.7267 261.249ZM47.0288 259.919L47.0224 257.126H47.3931L50.9215 253.182H53.6254L49.2852 258.014H48.8058L47.0288 259.919ZM44.9194 263V249.909H47.2333V263H44.9194ZM51.0813 263L47.8853 258.532L49.445 256.902L53.8491 263H51.0813Z" fill="#424242"/>
<path d="M21.1634 313V311.287L25.7081 306.832C26.1428 306.393 26.505 306.003 26.7947 305.662C27.0845 305.321 27.3018 304.991 27.4467 304.671C27.5916 304.352 27.6641 304.011 27.6641 303.648C27.6641 303.235 27.5703 302.881 27.3828 302.587C27.1953 302.289 26.9375 302.059 26.6094 301.897C26.2812 301.735 25.9084 301.654 25.4908 301.654C25.0604 301.654 24.6832 301.744 24.3594 301.923C24.0355 302.097 23.7841 302.347 23.6051 302.67C23.4304 302.994 23.343 303.38 23.343 303.827H21.0866C21.0866 302.996 21.2763 302.274 21.6555 301.661C22.0348 301.047 22.5568 300.572 23.2216 300.235C23.8906 299.898 24.6577 299.73 25.5227 299.73C26.4006 299.73 27.1719 299.894 27.8366 300.222C28.5014 300.55 29.017 301 29.3835 301.571C29.7543 302.142 29.9396 302.794 29.9396 303.527C29.9396 304.017 29.8459 304.499 29.6584 304.972C29.4709 305.445 29.1406 305.969 28.6676 306.544C28.1989 307.119 27.5405 307.816 26.6925 308.634L24.4361 310.929V311.018H30.1378V313H21.1634ZM37.1818 313.249C36.1293 313.249 35.2259 312.983 34.4716 312.45C33.7216 311.913 33.1442 311.14 32.7393 310.13C32.3388 309.116 32.1385 307.895 32.1385 306.467C32.1428 305.04 32.3452 303.825 32.7457 302.824C33.1506 301.818 33.728 301.051 34.478 300.523C35.2322 299.994 36.1335 299.73 37.1818 299.73C38.2301 299.73 39.1314 299.994 39.8857 300.523C40.6399 301.051 41.2173 301.818 41.6179 302.824C42.0227 303.83 42.2251 305.044 42.2251 306.467C42.2251 307.899 42.0227 309.122 41.6179 310.136C41.2173 311.146 40.6399 311.918 39.8857 312.45C39.1357 312.983 38.2344 313.249 37.1818 313.249ZM37.1818 311.249C38 311.249 38.6456 310.846 39.1186 310.04C39.5959 309.231 39.8345 308.04 39.8345 306.467C39.8345 305.428 39.7259 304.554 39.5085 303.847C39.2912 303.139 38.9844 302.607 38.5881 302.249C38.1918 301.886 37.723 301.705 37.1818 301.705C36.3679 301.705 35.7244 302.11 35.2514 302.92C34.7784 303.725 34.5398 304.908 34.5355 306.467C34.5313 307.511 34.6357 308.389 34.8487 309.101C35.0661 309.812 35.3729 310.349 35.7692 310.712C36.1655 311.07 36.6364 311.249 37.1818 311.249ZM46.4838 309.919L46.4775 307.126H46.8482L50.3766 303.182H53.0804L48.7402 308.014H48.2608L46.4838 309.919ZM44.3745 313V299.909H46.6884V313H44.3745ZM50.5364 313L47.3404 308.532L48.9 306.902L53.3042 313H50.5364Z" fill="#424242"/>
<path d="M26.4879 349.909V363H24.1165V352.217H24.0398L20.978 354.173V351.999L24.2315 349.909H26.4879ZM34.6506 363.249C33.598 363.249 32.6946 362.983 31.9403 362.45C31.1903 361.913 30.6129 361.14 30.2081 360.13C29.8075 359.116 29.6072 357.895 29.6072 356.467C29.6115 355.04 29.8139 353.825 30.2145 352.824C30.6193 351.818 31.1967 351.051 31.9467 350.523C32.701 349.994 33.6023 349.73 34.6506 349.73C35.6989 349.73 36.6001 349.994 37.3544 350.523C38.1087 351.051 38.6861 351.818 39.0866 352.824C39.4915 353.83 39.6939 355.044 39.6939 356.467C39.6939 357.899 39.4915 359.122 39.0866 360.136C38.6861 361.146 38.1087 361.918 37.3544 362.45C36.6044 362.983 35.7031 363.249 34.6506 363.249ZM34.6506 361.249C35.4688 361.249 36.1143 360.846 36.5874 360.04C37.0646 359.231 37.3033 358.04 37.3033 356.467C37.3033 355.428 37.1946 354.554 36.9773 353.847C36.7599 353.139 36.4531 352.607 36.0568 352.249C35.6605 351.886 35.1918 351.705 34.6506 351.705C33.8366 351.705 33.1932 352.11 32.7202 352.92C32.2472 353.725 32.0085 354.908 32.0043 356.467C32 357.511 32.1044 358.389 32.3175 359.101C32.5348 359.812 32.8416 360.349 33.2379 360.712C33.6342 361.07 34.1051 361.249 34.6506 361.249ZM43.9526 359.919L43.9462 357.126H44.3169L47.8453 353.182H50.5492L46.209 358.014H45.7296L43.9526 359.919ZM41.8432 363V349.909H44.1571V363H41.8432ZM48.0051 363L44.8091 358.532L46.3688 356.902L50.7729 363H48.0051Z" fill="#424242"/>
<path d="M44.0021 413.249C42.9496 413.249 42.0462 412.983 41.2919 412.45C40.5419 411.913 39.9645 411.14 39.5597 410.13C39.1591 409.116 38.9588 407.895 38.9588 406.467C38.9631 405.04 39.1655 403.825 39.5661 402.824C39.9709 401.818 40.5483 401.051 41.2983 400.523C42.0526 399.994 42.9538 399.73 44.0021 399.73C45.0504 399.73 45.9517 399.994 46.706 400.523C47.4602 401.051 48.0376 401.818 48.4382 402.824C48.843 403.83 49.0455 405.044 49.0455 406.467C49.0455 407.899 48.843 409.122 48.4382 410.136C48.0376 411.146 47.4602 411.918 46.706 412.45C45.956 412.983 45.0547 413.249 44.0021 413.249ZM44.0021 411.249C44.8203 411.249 45.4659 410.846 45.9389 410.04C46.4162 409.231 46.6548 408.04 46.6548 406.467C46.6548 405.428 46.5462 404.554 46.3288 403.847C46.1115 403.139 45.8047 402.607 45.4084 402.249C45.0121 401.886 44.5433 401.705 44.0021 401.705C43.1882 401.705 42.5447 402.11 42.0717 402.92C41.5987 403.725 41.3601 404.908 41.3558 406.467C41.3516 407.511 41.456 408.389 41.669 409.101C41.8864 409.812 42.1932 410.349 42.5895 410.712C42.9858 411.07 43.4567 411.249 44.0021 411.249Z" fill="#424242"/>
<path d="M77.456 410.909H79.8082V420.114C79.804 420.957 79.625 421.684 79.2713 422.293C78.9176 422.898 78.4233 423.365 77.7884 423.693C77.1577 424.017 76.4226 424.179 75.5831 424.179C74.8161 424.179 74.1257 424.043 73.5121 423.77C72.9027 423.493 72.419 423.084 72.0611 422.543C71.7031 422.001 71.5241 421.328 71.5241 420.523H73.8828C73.8871 420.876 73.9638 421.181 74.1129 421.437C74.2663 421.692 74.4773 421.888 74.7457 422.025C75.0142 422.161 75.3232 422.229 75.6726 422.229C76.0518 422.229 76.3736 422.151 76.6378 421.993C76.902 421.831 77.1023 421.592 77.2386 421.277C77.3793 420.962 77.4517 420.574 77.456 420.114V410.909ZM85.104 424.198C84.4819 424.198 83.9215 424.087 83.4229 423.866C82.9286 423.64 82.5366 423.308 82.2468 422.869C81.9613 422.43 81.8185 421.888 81.8185 421.245C81.8185 420.691 81.9208 420.233 82.1254 419.871C82.3299 419.509 82.609 419.219 82.9627 419.001C83.3164 418.784 83.7148 418.62 84.158 418.509C84.6055 418.394 85.0678 418.311 85.5451 418.26C86.1204 418.2 86.587 418.147 86.945 418.1C87.3029 418.049 87.5629 417.972 87.7248 417.87C87.891 417.763 87.9741 417.599 87.9741 417.378V417.339C87.9741 416.858 87.8313 416.485 87.5458 416.221C87.2603 415.957 86.8491 415.825 86.3121 415.825C85.7454 415.825 85.2958 415.948 84.9634 416.195C84.6353 416.442 84.4137 416.734 84.2987 417.071L82.1381 416.764C82.3086 416.168 82.5898 415.669 82.9819 415.268C83.3739 414.864 83.8533 414.561 84.4201 414.361C84.9869 414.156 85.6133 414.054 86.2994 414.054C86.7724 414.054 87.2433 414.109 87.712 414.22C88.1808 414.331 88.609 414.514 88.9968 414.77C89.3846 415.021 89.6957 415.364 89.93 415.799C90.1687 416.234 90.288 416.777 90.288 417.429V424H88.0636V422.651H87.9869C87.8462 422.924 87.6481 423.18 87.3924 423.418C87.141 423.653 86.8235 423.842 86.44 423.987C86.0607 424.128 85.6154 424.198 85.104 424.198ZM85.7049 422.498C86.1694 422.498 86.5721 422.406 86.913 422.223C87.2539 422.036 87.516 421.788 87.6992 421.482C87.8867 421.175 87.9805 420.84 87.9805 420.478V419.321C87.908 419.381 87.7844 419.436 87.6097 419.487C87.4393 419.538 87.2475 419.583 87.0344 419.621C86.8214 419.66 86.6104 419.694 86.4016 419.724C86.1928 419.754 86.0117 419.779 85.8583 419.8C85.5131 419.847 85.2042 419.924 84.9315 420.031C84.6587 420.137 84.4435 420.286 84.2859 420.478C84.1282 420.665 84.0494 420.908 84.0494 421.207C84.0494 421.633 84.2049 421.955 84.516 422.172C84.8271 422.389 85.2234 422.498 85.7049 422.498ZM94.9286 418.247V424H92.6147V414.182H94.8263V415.85H94.9414C95.1673 415.3 95.5273 414.864 96.0217 414.54C96.5202 414.216 97.136 414.054 97.869 414.054C98.5465 414.054 99.1367 414.199 99.6396 414.489C100.147 414.778 100.539 415.198 100.816 415.748C101.097 416.298 101.235 416.964 101.231 417.749V424H98.9173V418.107C98.9173 417.45 98.7468 416.937 98.4059 416.566C98.0692 416.195 97.6026 416.01 97.006 416.01C96.6012 416.01 96.2411 416.099 95.9258 416.278C95.6147 416.453 95.3697 416.707 95.1907 417.039C95.016 417.371 94.9286 417.774 94.9286 418.247Z" fill="#424242"/>
<path d="M156.291 424V410.909H164.678V412.897H158.663V416.451H164.102V418.439H158.663V424H156.291ZM170.362 424.192C169.377 424.192 168.527 423.987 167.811 423.578C167.1 423.165 166.552 422.581 166.169 421.827C165.785 421.068 165.593 420.175 165.593 419.148C165.593 418.138 165.785 417.252 166.169 416.489C166.556 415.722 167.097 415.126 167.792 414.7C168.487 414.269 169.303 414.054 170.24 414.054C170.845 414.054 171.416 414.152 171.953 414.348C172.494 414.54 172.972 414.838 173.385 415.243C173.803 415.648 174.131 416.163 174.369 416.79C174.608 417.412 174.727 418.153 174.727 419.014V419.724H166.68V418.164H172.509C172.505 417.721 172.409 417.327 172.222 416.982C172.034 416.632 171.772 416.357 171.436 416.157C171.103 415.957 170.715 415.857 170.272 415.857C169.799 415.857 169.384 415.972 169.026 416.202C168.668 416.428 168.389 416.726 168.188 417.097C167.992 417.463 167.892 417.866 167.888 418.305V419.666C167.888 420.237 167.992 420.727 168.201 421.136C168.41 421.541 168.702 421.852 169.077 422.07C169.452 422.283 169.891 422.389 170.394 422.389C170.73 422.389 171.035 422.342 171.308 422.249C171.58 422.151 171.817 422.008 172.017 421.82C172.218 421.633 172.369 421.401 172.471 421.124L174.632 421.366C174.495 421.937 174.235 422.436 173.852 422.862C173.472 423.284 172.987 423.612 172.394 423.847C171.802 424.077 171.124 424.192 170.362 424.192ZM176.787 424V410.909H179.101V415.805H179.197C179.316 415.567 179.485 415.313 179.702 415.045C179.919 414.772 180.213 414.54 180.584 414.348C180.955 414.152 181.428 414.054 182.003 414.054C182.762 414.054 183.446 414.248 184.055 414.636C184.669 415.019 185.154 415.588 185.512 416.342C185.875 417.092 186.056 418.013 186.056 419.104C186.056 420.182 185.879 421.098 185.525 421.852C185.172 422.607 184.69 423.182 184.081 423.578C183.471 423.974 182.781 424.173 182.01 424.173C181.447 424.173 180.98 424.079 180.61 423.891C180.239 423.704 179.941 423.478 179.715 423.214C179.493 422.945 179.321 422.692 179.197 422.453H179.063V424H176.787ZM179.056 419.091C179.056 419.726 179.146 420.282 179.325 420.759C179.508 421.237 179.77 421.609 180.111 421.878C180.456 422.142 180.874 422.274 181.364 422.274C181.875 422.274 182.304 422.138 182.649 421.865C182.994 421.588 183.254 421.211 183.429 420.734C183.608 420.252 183.697 419.705 183.697 419.091C183.697 418.482 183.61 417.94 183.435 417.467C183.26 416.994 183 416.624 182.655 416.355C182.31 416.087 181.88 415.952 181.364 415.952C180.87 415.952 180.45 416.082 180.105 416.342C179.76 416.602 179.498 416.967 179.319 417.435C179.144 417.904 179.056 418.456 179.056 419.091Z" fill="#424242"/>
<path d="M240.291 410.909H243.193L247.08 420.395H247.233L251.119 410.909H254.021V424H251.746V415.006H251.624L248.006 423.962H246.306L242.688 414.987H242.567V424H240.291V410.909ZM259.327 424.198C258.705 424.198 258.144 424.087 257.646 423.866C257.151 423.64 256.759 423.308 256.469 422.869C256.184 422.43 256.041 421.888 256.041 421.245C256.041 420.691 256.143 420.233 256.348 419.871C256.553 419.509 256.832 419.219 257.185 419.001C257.539 418.784 257.938 418.62 258.381 418.509C258.828 418.394 259.29 418.311 259.768 418.26C260.343 418.2 260.81 418.147 261.168 418.1C261.526 418.049 261.786 417.972 261.947 417.87C262.114 417.763 262.197 417.599 262.197 417.378V417.339C262.197 416.858 262.054 416.485 261.768 416.221C261.483 415.957 261.072 415.825 260.535 415.825C259.968 415.825 259.518 415.948 259.186 416.195C258.858 416.442 258.636 416.734 258.521 417.071L256.361 416.764C256.531 416.168 256.813 415.669 257.205 415.268C257.597 414.864 258.076 414.561 258.643 414.361C259.21 414.156 259.836 414.054 260.522 414.054C260.995 414.054 261.466 414.109 261.935 414.22C262.403 414.331 262.832 414.514 263.219 414.77C263.607 415.021 263.918 415.364 264.153 415.799C264.391 416.234 264.511 416.777 264.511 417.429V424H262.286V422.651H262.21C262.069 422.924 261.871 423.18 261.615 423.418C261.364 423.653 261.046 423.842 260.663 423.987C260.283 424.128 259.838 424.198 259.327 424.198ZM259.928 422.498C260.392 422.498 260.795 422.406 261.136 422.223C261.477 422.036 261.739 421.788 261.922 421.482C262.109 421.175 262.203 420.84 262.203 420.478V419.321C262.131 419.381 262.007 419.436 261.832 419.487C261.662 419.538 261.47 419.583 261.257 419.621C261.044 419.66 260.833 419.694 260.624 419.724C260.415 419.754 260.234 419.779 260.081 419.8C259.736 419.847 259.427 419.924 259.154 420.031C258.881 420.137 258.666 420.286 258.509 420.478C258.351 420.665 258.272 420.908 258.272 421.207C258.272 421.633 258.428 421.955 258.739 422.172C259.05 422.389 259.446 422.498 259.928 422.498ZM266.837 424V414.182H269.081V415.818H269.183C269.362 415.251 269.669 414.815 270.104 414.508C270.543 414.197 271.043 414.041 271.606 414.041C271.734 414.041 271.876 414.048 272.034 414.06C272.196 414.069 272.33 414.084 272.437 414.105V416.234C272.339 416.2 272.183 416.17 271.97 416.144C271.761 416.114 271.559 416.099 271.363 416.099C270.941 416.099 270.562 416.191 270.225 416.374C269.893 416.553 269.631 416.803 269.439 417.122C269.247 417.442 269.151 417.81 269.151 418.228V424H266.837Z" fill="#424242"/>
<path d="M327.972 424H325.441L330.05 410.909H332.977L337.592 424H335.061L331.565 413.594H331.462L327.972 424ZM328.055 418.867H334.959V420.772H328.055V418.867ZM339.214 427.682V414.182H341.49V415.805H341.624C341.743 415.567 341.912 415.313 342.129 415.045C342.346 414.772 342.64 414.54 343.011 414.348C343.382 414.152 343.855 414.054 344.43 414.054C345.189 414.054 345.873 414.248 346.482 414.636C347.096 415.019 347.581 415.588 347.939 416.342C348.302 417.092 348.483 418.013 348.483 419.104C348.483 420.182 348.306 421.098 347.952 421.852C347.599 422.607 347.117 423.182 346.508 423.578C345.898 423.974 345.208 424.173 344.437 424.173C343.874 424.173 343.407 424.079 343.037 423.891C342.666 423.704 342.368 423.478 342.142 423.214C341.92 422.945 341.748 422.692 341.624 422.453H341.528V427.682H339.214ZM341.483 419.091C341.483 419.726 341.573 420.282 341.752 420.759C341.935 421.237 342.197 421.609 342.538 421.878C342.883 422.142 343.301 422.274 343.791 422.274C344.302 422.274 344.731 422.138 345.076 421.865C345.421 421.588 345.681 421.211 345.856 420.734C346.035 420.252 346.124 419.705 346.124 419.091C346.124 418.482 346.037 417.94 345.862 417.467C345.687 416.994 345.427 416.624 345.082 416.355C344.737 416.087 344.307 415.952 343.791 415.952C343.297 415.952 342.877 416.082 342.532 416.342C342.187 416.602 341.925 416.967 341.746 417.435C341.571 417.904 341.483 418.456 341.483 419.091ZM350.464 424V414.182H352.708V415.818H352.81C352.989 415.251 353.296 414.815 353.731 414.508C354.17 414.197 354.67 414.041 355.233 414.041C355.361 414.041 355.503 414.048 355.661 414.06C355.823 414.069 355.957 414.084 356.064 414.105V416.234C355.966 416.2 355.81 416.17 355.597 416.144C355.388 416.114 355.186 416.099 354.99 416.099C354.568 416.099 354.189 416.191 353.852 416.374C353.52 416.553 353.258 416.803 353.066 417.122C352.874 417.442 352.778 417.81 352.778 418.228V424H350.464Z" fill="#424242"/>
<path d="M410.291 410.909H413.193L417.08 420.395H417.233L421.119 410.909H424.021V424H421.746V415.006H421.624L418.006 423.962H416.306L412.688 414.987H412.567V424H410.291V410.909ZM429.327 424.198C428.705 424.198 428.144 424.087 427.646 423.866C427.151 423.64 426.759 423.308 426.469 422.869C426.184 422.43 426.041 421.888 426.041 421.245C426.041 420.691 426.143 420.233 426.348 419.871C426.553 419.509 426.832 419.219 427.185 419.001C427.539 418.784 427.938 418.62 428.381 418.509C428.828 418.394 429.29 418.311 429.768 418.26C430.343 418.2 430.81 418.147 431.168 418.1C431.526 418.049 431.786 417.972 431.947 417.87C432.114 417.763 432.197 417.599 432.197 417.378V417.339C432.197 416.858 432.054 416.485 431.768 416.221C431.483 415.957 431.072 415.825 430.535 415.825C429.968 415.825 429.518 415.948 429.186 416.195C428.858 416.442 428.636 416.734 428.521 417.071L426.361 416.764C426.531 416.168 426.813 415.669 427.205 415.268C427.597 414.864 428.076 414.561 428.643 414.361C429.21 414.156 429.836 414.054 430.522 414.054C430.995 414.054 431.466 414.109 431.935 414.22C432.403 414.331 432.832 414.514 433.219 414.77C433.607 415.021 433.918 415.364 434.153 415.799C434.391 416.234 434.511 416.777 434.511 417.429V424H432.286V422.651H432.21C432.069 422.924 431.871 423.18 431.615 423.418C431.364 423.653 431.046 423.842 430.663 423.987C430.283 424.128 429.838 424.198 429.327 424.198ZM429.928 422.498C430.392 422.498 430.795 422.406 431.136 422.223C431.477 422.036 431.739 421.788 431.922 421.482C432.109 421.175 432.203 420.84 432.203 420.478V419.321C432.131 419.381 432.007 419.436 431.832 419.487C431.662 419.538 431.47 419.583 431.257 419.621C431.044 419.66 430.833 419.694 430.624 419.724C430.415 419.754 430.234 419.779 430.081 419.8C429.736 419.847 429.427 419.924 429.154 420.031C428.881 420.137 428.666 420.286 428.509 420.478C428.351 420.665 428.272 420.908 428.272 421.207C428.272 421.633 428.428 421.955 428.739 422.172C429.05 422.389 429.446 422.498 429.928 422.498ZM437.924 427.682C437.609 427.682 437.317 427.656 437.048 427.605C436.784 427.558 436.573 427.503 436.415 427.439L436.952 425.636C437.289 425.734 437.589 425.781 437.854 425.777C438.118 425.773 438.35 425.69 438.55 425.528C438.755 425.37 438.928 425.106 439.068 424.735L439.266 424.205L435.706 414.182H438.161L440.423 421.597H440.526L442.795 414.182H445.256L441.325 425.189C441.141 425.709 440.898 426.154 440.596 426.525C440.293 426.9 439.923 427.185 439.484 427.381C439.049 427.582 438.529 427.682 437.924 427.682Z" fill="#424242"/>
<path d="M504.456 410.909H506.808V420.114C506.804 420.957 506.625 421.684 506.271 422.293C505.918 422.898 505.423 423.365 504.788 423.693C504.158 424.017 503.423 424.179 502.583 424.179C501.816 424.179 501.126 424.043 500.512 423.77C499.903 423.493 499.419 423.084 499.061 422.543C498.703 422.001 498.524 421.328 498.524 420.523H500.883C500.887 420.876 500.964 421.181 501.113 421.437C501.266 421.692 501.477 421.888 501.746 422.025C502.014 422.161 502.323 422.229 502.673 422.229C503.052 422.229 503.374 422.151 503.638 421.993C503.902 421.831 504.102 421.592 504.239 421.277C504.379 420.962 504.452 420.574 504.456 420.114V410.909ZM515.537 419.871V414.182H517.85V424H515.607V422.255H515.505C515.283 422.805 514.919 423.254 514.412 423.604C513.909 423.953 513.289 424.128 512.551 424.128C511.908 424.128 511.339 423.985 510.845 423.7C510.355 423.41 509.971 422.99 509.694 422.44C509.417 421.886 509.279 421.217 509.279 420.433V414.182H511.593V420.075C511.593 420.697 511.763 421.192 512.104 421.558C512.445 421.925 512.892 422.108 513.446 422.108C513.787 422.108 514.118 422.025 514.437 421.859C514.757 421.692 515.019 421.445 515.223 421.117C515.432 420.785 515.537 420.369 515.537 419.871ZM522.544 418.247V424H520.23V414.182H522.442V415.85H522.557C522.782 415.3 523.143 414.864 523.637 414.54C524.135 414.216 524.751 414.054 525.484 414.054C526.162 414.054 526.752 414.199 527.255 414.489C527.762 414.778 528.154 415.198 528.431 415.748C528.712 416.298 528.851 416.964 528.846 417.749V424H526.532V418.107C526.532 417.45 526.362 416.937 526.021 416.566C525.684 416.195 525.218 416.01 524.621 416.01C524.216 416.01 523.856 416.099 523.541 416.278C523.23 416.453 522.985 416.707 522.806 417.039C522.631 417.371 522.544 417.774 522.544 418.247Z" fill="#424242"/>
<path d="M589.456 410.909H591.808V420.114C591.804 420.957 591.625 421.684 591.271 422.293C590.918 422.898 590.423 423.365 589.788 423.693C589.158 424.017 588.423 424.179 587.583 424.179C586.816 424.179 586.126 424.043 585.512 423.77C584.903 423.493 584.419 423.084 584.061 422.543C583.703 422.001 583.524 421.328 583.524 420.523H585.883C585.887 420.876 585.964 421.181 586.113 421.437C586.266 421.692 586.477 421.888 586.746 422.025C587.014 422.161 587.323 422.229 587.673 422.229C588.052 422.229 588.374 422.151 588.638 421.993C588.902 421.831 589.102 421.592 589.239 421.277C589.379 420.962 589.452 420.574 589.456 420.114V410.909ZM600.537 419.871V414.182H602.85V424H600.607V422.255H600.505C600.283 422.805 599.919 423.254 599.412 423.604C598.909 423.953 598.289 424.128 597.551 424.128C596.908 424.128 596.339 423.985 595.845 423.7C595.355 423.41 594.971 422.99 594.694 422.44C594.417 421.886 594.279 421.217 594.279 420.433V414.182H596.593V420.075C596.593 420.697 596.763 421.192 597.104 421.558C597.445 421.925 597.892 422.108 598.446 422.108C598.787 422.108 599.118 422.025 599.437 421.859C599.757 421.692 600.019 421.445 600.223 421.117C600.432 420.785 600.537 420.369 600.537 419.871ZM607.544 410.909V424H605.23V410.909H607.544Z" fill="#424242"/>
<path d="M663.972 424H661.441L666.05 410.909H668.977L673.592 424H671.061L667.565 413.594H667.462L663.972 424ZM664.055 418.867H670.959V420.772H664.055V418.867ZM681.472 419.871V414.182H683.786V424H681.542V422.255H681.44C681.219 422.805 680.854 423.254 680.347 423.604C679.844 423.953 679.224 424.128 678.487 424.128C677.844 424.128 677.275 423.985 676.78 423.7C676.29 423.41 675.907 422.99 675.63 422.44C675.353 421.886 675.214 421.217 675.214 420.433V414.182H677.528V420.075C677.528 420.697 677.699 421.192 678.04 421.558C678.381 421.925 678.828 422.108 679.382 422.108C679.723 422.108 680.053 422.025 680.373 421.859C680.692 421.692 680.954 421.445 681.159 421.117C681.368 420.785 681.472 420.369 681.472 419.871ZM690.435 427.886C689.604 427.886 688.891 427.773 688.294 427.548C687.697 427.326 687.218 427.028 686.856 426.653C686.494 426.278 686.242 425.862 686.102 425.406L688.185 424.901C688.279 425.093 688.415 425.283 688.594 425.47C688.773 425.662 689.014 425.82 689.317 425.943C689.624 426.071 690.009 426.135 690.474 426.135C691.13 426.135 691.673 425.975 692.104 425.656C692.534 425.34 692.749 424.82 692.749 424.096V422.236H692.634C692.515 422.474 692.34 422.719 692.11 422.971C691.884 423.222 691.584 423.433 691.209 423.604C690.838 423.774 690.371 423.859 689.809 423.859C689.055 423.859 688.371 423.683 687.757 423.329C687.148 422.971 686.662 422.438 686.3 421.731C685.942 421.019 685.763 420.129 685.763 419.059C685.763 417.981 685.942 417.071 686.3 416.33C686.662 415.584 687.15 415.019 687.763 414.636C688.377 414.248 689.061 414.054 689.815 414.054C690.391 414.054 690.864 414.152 691.234 414.348C691.609 414.54 691.908 414.772 692.129 415.045C692.351 415.313 692.519 415.567 692.634 415.805H692.762V414.182H695.044V424.16C695.044 424.999 694.844 425.694 694.443 426.244C694.043 426.793 693.495 427.205 692.8 427.477C692.106 427.75 691.317 427.886 690.435 427.886ZM690.455 422.044C690.945 422.044 691.362 421.925 691.707 421.686C692.053 421.447 692.315 421.104 692.494 420.657C692.673 420.21 692.762 419.673 692.762 419.046C692.762 418.428 692.673 417.887 692.494 417.423C692.319 416.958 692.059 416.598 691.714 416.342C691.373 416.082 690.953 415.952 690.455 415.952C689.939 415.952 689.509 416.087 689.163 416.355C688.818 416.624 688.558 416.992 688.384 417.461C688.209 417.925 688.121 418.454 688.121 419.046C688.121 419.647 688.209 420.173 688.384 420.625C688.563 421.072 688.825 421.422 689.17 421.673C689.519 421.92 689.947 422.044 690.455 422.044Z" fill="#424242"/>
<path d="M757.406 414.508C757.346 413.95 757.094 413.515 756.651 413.204C756.212 412.893 755.641 412.737 754.938 412.737C754.444 412.737 754.02 412.812 753.666 412.961C753.313 413.11 753.042 413.312 752.854 413.568C752.667 413.824 752.571 414.116 752.567 414.444C752.567 414.717 752.629 414.953 752.752 415.153C752.88 415.354 753.053 415.524 753.27 415.665C753.487 415.801 753.728 415.916 753.992 416.01C754.256 416.104 754.523 416.183 754.791 416.246L756.018 416.553C756.513 416.668 756.988 416.824 757.444 417.02C757.904 417.216 758.315 417.463 758.678 417.761C759.044 418.06 759.334 418.42 759.547 418.842C759.76 419.263 759.866 419.758 759.866 420.325C759.866 421.092 759.67 421.767 759.278 422.351C758.886 422.93 758.32 423.384 757.578 423.712C756.841 424.036 755.948 424.198 754.9 424.198C753.881 424.198 752.997 424.04 752.247 423.725C751.501 423.41 750.918 422.95 750.496 422.344C750.078 421.739 749.852 421.002 749.818 420.133H752.151C752.185 420.589 752.326 420.968 752.573 421.271C752.82 421.573 753.142 421.799 753.538 421.948C753.939 422.097 754.386 422.172 754.881 422.172C755.396 422.172 755.848 422.095 756.236 421.942C756.628 421.784 756.935 421.567 757.156 421.29C757.378 421.009 757.491 420.68 757.495 420.305C757.491 419.964 757.391 419.683 757.195 419.462C756.999 419.236 756.724 419.048 756.37 418.899C756.021 418.746 755.612 418.609 755.143 418.49L753.653 418.107C752.575 417.83 751.723 417.41 751.097 416.847C750.474 416.281 750.163 415.528 750.163 414.591C750.163 413.82 750.372 413.144 750.79 412.565C751.212 411.985 751.785 411.536 752.509 411.216C753.234 410.892 754.054 410.73 754.97 410.73C755.899 410.73 756.713 410.892 757.412 411.216C758.115 411.536 758.667 411.981 759.067 412.552C759.468 413.119 759.675 413.771 759.688 414.508H757.406ZM766.225 424.192C765.241 424.192 764.39 423.987 763.675 423.578C762.963 423.165 762.415 422.581 762.032 421.827C761.648 421.068 761.456 420.175 761.456 419.148C761.456 418.138 761.648 417.252 762.032 416.489C762.42 415.722 762.961 415.126 763.655 414.7C764.35 414.269 765.166 414.054 766.104 414.054C766.709 414.054 767.28 414.152 767.817 414.348C768.358 414.54 768.835 414.838 769.248 415.243C769.666 415.648 769.994 416.163 770.233 416.79C770.471 417.412 770.591 418.153 770.591 419.014V419.724H762.543V418.164H768.373C768.368 417.721 768.273 417.327 768.085 416.982C767.898 416.632 767.635 416.357 767.299 416.157C766.966 415.957 766.579 415.857 766.135 415.857C765.662 415.857 765.247 415.972 764.889 416.202C764.531 416.428 764.252 416.726 764.052 417.097C763.856 417.463 763.756 417.866 763.751 418.305V419.666C763.751 420.237 763.856 420.727 764.064 421.136C764.273 421.541 764.565 421.852 764.94 422.07C765.315 422.283 765.754 422.389 766.257 422.389C766.594 422.389 766.898 422.342 767.171 422.249C767.444 422.151 767.68 422.008 767.881 421.82C768.081 421.633 768.232 421.401 768.334 421.124L770.495 421.366C770.358 421.937 770.099 422.436 769.715 422.862C769.336 423.284 768.85 423.612 768.258 423.847C767.665 424.077 766.988 424.192 766.225 424.192ZM772.548 427.682V414.182H774.824V415.805H774.958C775.077 415.567 775.246 415.313 775.463 415.045C775.68 414.772 775.974 414.54 776.345 414.348C776.716 414.152 777.189 414.054 777.764 414.054C778.523 414.054 779.207 414.248 779.816 414.636C780.43 415.019 780.915 415.588 781.273 416.342C781.636 417.092 781.817 418.013 781.817 419.104C781.817 420.182 781.64 421.098 781.286 421.852C780.933 422.607 780.451 423.182 779.842 423.578C779.232 423.974 778.542 424.173 777.771 424.173C777.208 424.173 776.741 424.079 776.371 423.891C776 423.704 775.702 423.478 775.476 423.214C775.254 422.945 775.082 422.692 774.958 422.453H774.862V427.682H772.548ZM774.817 419.091C774.817 419.726 774.907 420.282 775.086 420.759C775.269 421.237 775.531 421.609 775.872 421.878C776.217 422.142 776.635 422.274 777.125 422.274C777.636 422.274 778.065 422.138 778.41 421.865C778.755 421.588 779.015 421.211 779.19 420.734C779.369 420.252 779.458 419.705 779.458 419.091C779.458 418.482 779.371 417.94 779.196 417.467C779.021 416.994 778.761 416.624 778.416 416.355C778.071 416.087 777.641 415.952 777.125 415.952C776.631 415.952 776.211 416.082 775.866 416.342C775.521 416.602 775.259 416.967 775.08 417.435C774.905 417.904 774.817 418.456 774.817 419.091Z" fill="#424242"/>
<path d="M847.989 417.455C847.989 418.865 847.724 420.073 847.196 421.079C846.672 422.08 845.956 422.847 845.048 423.38C844.145 423.913 843.12 424.179 841.974 424.179C840.827 424.179 839.8 423.913 838.893 423.38C837.989 422.843 837.273 422.074 836.745 421.072C836.221 420.067 835.959 418.861 835.959 417.455C835.959 416.044 836.221 414.838 836.745 413.837C837.273 412.831 837.989 412.062 838.893 411.529C839.8 410.996 840.827 410.73 841.974 410.73C843.12 410.73 844.145 410.996 845.048 411.529C845.956 412.062 846.672 412.831 847.196 413.837C847.724 414.838 847.989 416.044 847.989 417.455ZM845.604 417.455C845.604 416.462 845.449 415.624 845.138 414.942C844.831 414.256 844.405 413.739 843.859 413.389C843.314 413.036 842.685 412.859 841.974 412.859C841.262 412.859 840.634 413.036 840.088 413.389C839.543 413.739 839.114 414.256 838.803 414.942C838.496 415.624 838.343 416.462 838.343 417.455C838.343 418.447 838.496 419.287 838.803 419.973C839.114 420.655 839.543 421.173 840.088 421.526C840.634 421.876 841.262 422.05 841.974 422.05C842.685 422.05 843.314 421.876 843.859 421.526C844.405 421.173 844.831 420.655 845.138 419.973C845.449 419.287 845.604 418.447 845.604 417.455ZM854.411 424.192C853.431 424.192 852.589 423.977 851.886 423.546C851.187 423.116 850.648 422.521 850.269 421.763C849.894 421 849.706 420.122 849.706 419.129C849.706 418.132 849.898 417.252 850.282 416.489C850.665 415.722 851.206 415.126 851.905 414.7C852.608 414.269 853.439 414.054 854.398 414.054C855.195 414.054 855.9 414.201 856.514 414.495C857.132 414.785 857.624 415.196 857.991 415.729C858.357 416.257 858.566 416.875 858.617 417.582H856.405C856.316 417.109 856.103 416.715 855.766 416.4C855.434 416.08 854.988 415.92 854.43 415.92C853.957 415.92 853.542 416.048 853.184 416.304C852.826 416.555 852.547 416.918 852.346 417.391C852.15 417.864 852.052 418.43 852.052 419.091C852.052 419.76 852.15 420.335 852.346 420.817C852.542 421.294 852.817 421.663 853.171 421.923C853.529 422.178 853.949 422.306 854.43 422.306C854.771 422.306 855.076 422.242 855.344 422.114C855.617 421.982 855.845 421.793 856.028 421.545C856.211 421.298 856.337 420.998 856.405 420.644H858.617C858.562 421.339 858.357 421.955 858.003 422.491C857.65 423.024 857.168 423.442 856.559 423.744C855.949 424.043 855.233 424.192 854.411 424.192ZM865.42 414.182V415.972H859.776V414.182H865.42ZM861.169 411.83H863.483V421.047C863.483 421.358 863.53 421.597 863.624 421.763C863.722 421.925 863.849 422.036 864.007 422.095C864.165 422.155 864.339 422.185 864.531 422.185C864.676 422.185 864.808 422.174 864.928 422.153C865.051 422.131 865.145 422.112 865.209 422.095L865.599 423.904C865.475 423.947 865.298 423.994 865.068 424.045C864.842 424.096 864.565 424.126 864.237 424.134C863.658 424.151 863.136 424.064 862.671 423.872C862.207 423.676 861.838 423.374 861.565 422.964C861.297 422.555 861.165 422.044 861.169 421.43V411.83Z" fill="#424242"/>
<path d="M931.049 410.909V424H928.94L922.771 415.083H922.663V424H920.291V410.909H922.413L928.575 419.832H928.69V410.909H931.049ZM937.813 424.192C936.855 424.192 936.024 423.981 935.32 423.559C934.617 423.137 934.072 422.547 933.684 421.788C933.301 421.03 933.109 420.143 933.109 419.129C933.109 418.115 933.301 417.227 933.684 416.464C934.072 415.701 934.617 415.109 935.32 414.687C936.024 414.265 936.855 414.054 937.813 414.054C938.772 414.054 939.603 414.265 940.306 414.687C941.009 415.109 941.553 415.701 941.936 416.464C942.324 417.227 942.518 418.115 942.518 419.129C942.518 420.143 942.324 421.03 941.936 421.788C941.553 422.547 941.009 423.137 940.306 423.559C939.603 423.981 938.772 424.192 937.813 424.192ZM937.826 422.338C938.346 422.338 938.781 422.195 939.13 421.91C939.48 421.62 939.74 421.232 939.91 420.746C940.085 420.261 940.172 419.719 940.172 419.123C940.172 418.522 940.085 417.979 939.91 417.493C939.74 417.003 939.48 416.613 939.13 416.323C938.781 416.033 938.346 415.888 937.826 415.888C937.294 415.888 936.85 416.033 936.497 416.323C936.147 416.613 935.885 417.003 935.71 417.493C935.54 417.979 935.455 418.522 935.455 419.123C935.455 419.719 935.54 420.261 935.71 420.746C935.885 421.232 936.147 421.62 936.497 421.91C936.85 422.195 937.294 422.338 937.826 422.338ZM952.918 414.182L949.421 424H946.865L943.368 414.182H945.835L948.092 421.475H948.194L950.457 414.182H952.918Z" fill="#424242"/>
<path d="M1011.73 424H1007.29V410.909H1011.82C1013.12 410.909 1014.23 411.171 1015.17 411.695C1016.1 412.215 1016.82 412.963 1017.33 413.939C1017.83 414.915 1018.08 416.082 1018.08 417.442C1018.08 418.805 1017.83 419.977 1017.32 420.957C1016.82 421.937 1016.09 422.69 1015.14 423.214C1014.19 423.738 1013.06 424 1011.73 424ZM1009.66 421.948H1011.61C1012.52 421.948 1013.28 421.782 1013.89 421.45C1014.5 421.113 1014.96 420.612 1015.27 419.947C1015.58 419.278 1015.73 418.443 1015.73 417.442C1015.73 416.44 1015.58 415.609 1015.27 414.949C1014.96 414.284 1014.51 413.788 1013.91 413.46C1013.31 413.127 1012.57 412.961 1011.68 412.961H1009.66V421.948ZM1024.58 424.192C1023.59 424.192 1022.74 423.987 1022.03 423.578C1021.32 423.165 1020.77 422.581 1020.39 421.827C1020 421.068 1019.81 420.175 1019.81 419.148C1019.81 418.138 1020 417.252 1020.39 416.489C1020.77 415.722 1021.31 415.126 1022.01 414.7C1022.7 414.269 1023.52 414.054 1024.46 414.054C1025.06 414.054 1025.63 414.152 1026.17 414.348C1026.71 414.54 1027.19 414.838 1027.6 415.243C1028.02 415.648 1028.35 416.163 1028.59 416.79C1028.82 417.412 1028.94 418.153 1028.94 419.014V419.724H1020.9V418.164H1026.73C1026.72 417.721 1026.63 417.327 1026.44 416.982C1026.25 416.632 1025.99 416.357 1025.65 416.157C1025.32 415.957 1024.93 415.857 1024.49 415.857C1024.02 415.857 1023.6 415.972 1023.24 416.202C1022.88 416.428 1022.61 416.726 1022.41 417.097C1022.21 417.463 1022.11 417.866 1022.1 418.305V419.666C1022.1 420.237 1022.21 420.727 1022.42 421.136C1022.63 421.541 1022.92 421.852 1023.29 422.07C1023.67 422.283 1024.11 422.389 1024.61 422.389C1024.95 422.389 1025.25 422.342 1025.52 422.249C1025.8 422.151 1026.03 422.008 1026.23 421.82C1026.43 421.633 1026.59 421.401 1026.69 421.124L1028.85 421.366C1028.71 421.937 1028.45 422.436 1028.07 422.862C1027.69 423.284 1027.2 423.612 1026.61 423.847C1026.02 424.077 1025.34 424.192 1024.58 424.192ZM1035.18 424.192C1034.2 424.192 1033.36 423.977 1032.66 423.546C1031.96 423.116 1031.42 422.521 1031.04 421.763C1030.67 421 1030.48 420.122 1030.48 419.129C1030.48 418.132 1030.67 417.252 1031.06 416.489C1031.44 415.722 1031.98 415.126 1032.68 414.7C1033.38 414.269 1034.21 414.054 1035.17 414.054C1035.97 414.054 1036.67 414.201 1037.29 414.495C1037.91 414.785 1038.4 415.196 1038.76 415.729C1039.13 416.257 1039.34 416.875 1039.39 417.582H1037.18C1037.09 417.109 1036.88 416.715 1036.54 416.4C1036.21 416.08 1035.76 415.92 1035.2 415.92C1034.73 415.92 1034.32 416.048 1033.96 416.304C1033.6 416.555 1033.32 416.918 1033.12 417.391C1032.92 417.864 1032.83 418.43 1032.83 419.091C1032.83 419.76 1032.92 420.335 1033.12 420.817C1033.32 421.294 1033.59 421.663 1033.94 421.923C1034.3 422.178 1034.72 422.306 1035.2 422.306C1035.54 422.306 1035.85 422.242 1036.12 422.114C1036.39 421.982 1036.62 421.793 1036.8 421.545C1036.98 421.298 1037.11 420.998 1037.18 420.644H1039.39C1039.34 421.339 1039.13 421.955 1038.78 422.491C1038.42 423.024 1037.94 423.442 1037.33 423.744C1036.72 424.043 1036.01 424.192 1035.18 424.192Z" fill="#424242"/>
<rect x="872" y="31" width="94" height="29" rx="2" fill="#EEEEEE"/>
<path d="M946.414 41.8594H933.586C933.201 41.8594 932.986 42.2656 933.225 42.543L939.639 49.9805C939.822 50.1934 940.176 50.1934 940.361 49.9805L946.775 42.543C947.014 42.2656 946.799 41.8594 946.414 41.8594Z" fill="#424242"/>
<path d="M893.801 38.3636H895.551V46.6136C895.551 47.3598 895.403 47.9981 895.108 48.5284C894.816 49.0587 894.405 49.464 893.875 49.7443C893.345 50.0208 892.723 50.1591 892.011 50.1591C891.356 50.1591 890.767 50.0398 890.244 49.8011C889.725 49.5625 889.314 49.2159 889.011 48.7614C888.712 48.303 888.562 47.7462 888.562 47.0909H890.307C890.307 47.4129 890.381 47.6913 890.528 47.9261C890.68 48.161 890.886 48.3447 891.148 48.4773C891.413 48.6061 891.716 48.6705 892.057 48.6705C892.428 48.6705 892.742 48.5928 893 48.4375C893.261 48.2784 893.46 48.0455 893.597 47.7386C893.733 47.4318 893.801 47.0568 893.801 46.6136V38.3636ZM903.499 46.3807V41.2727H905.203V50H903.533V48.4886H903.442C903.241 48.9545 902.919 49.3428 902.476 49.6534C902.036 49.9602 901.489 50.1136 900.834 50.1136C900.273 50.1136 899.777 49.9905 899.345 49.7443C898.917 49.4943 898.58 49.125 898.334 48.6364C898.091 48.1477 897.97 47.5436 897.97 46.8239V41.2727H899.669V46.6193C899.669 47.214 899.834 47.6875 900.163 48.0398C900.493 48.392 900.921 48.5682 901.447 48.5682C901.766 48.5682 902.082 48.4886 902.396 48.3295C902.714 48.1705 902.978 47.9299 903.186 47.608C903.398 47.286 903.502 46.8769 903.499 46.3807ZM909.185 44.8182V50H907.486V41.2727H909.116V42.6932H909.224C909.425 42.2311 909.74 41.8598 910.168 41.5795C910.599 41.2992 911.143 41.1591 911.798 41.1591C912.393 41.1591 912.914 41.2841 913.361 41.5341C913.808 41.7803 914.154 42.1477 914.401 42.6364C914.647 43.125 914.77 43.7292 914.77 44.4489V50H913.071V44.6534C913.071 44.0208 912.906 43.5265 912.577 43.1705C912.247 42.8106 911.795 42.6307 911.219 42.6307C910.825 42.6307 910.474 42.7159 910.168 42.8864C909.865 43.0568 909.624 43.3068 909.446 43.6364C909.272 43.9621 909.185 44.3561 909.185 44.8182ZM920.81 50.1761C919.95 50.1761 919.209 49.9924 918.588 49.625C917.971 49.2538 917.493 48.733 917.156 48.0625C916.823 47.3883 916.656 46.5985 916.656 45.6932C916.656 44.7992 916.823 44.0114 917.156 43.3295C917.493 42.6477 917.963 42.1155 918.565 41.733C919.171 41.3504 919.88 41.1591 920.69 41.1591C921.183 41.1591 921.66 41.2405 922.122 41.4034C922.584 41.5663 922.999 41.822 923.366 42.1705C923.734 42.5189 924.024 42.9716 924.236 43.5284C924.448 44.0814 924.554 44.7538 924.554 45.5455V46.1477H917.616V44.875H922.889C922.889 44.428 922.798 44.0322 922.616 43.6875C922.435 43.339 922.179 43.0644 921.849 42.8636C921.524 42.6629 921.141 42.5625 920.702 42.5625C920.224 42.5625 919.808 42.6799 919.452 42.9148C919.099 43.1458 918.827 43.4489 918.634 43.8239C918.444 44.1951 918.349 44.5985 918.349 45.0341V46.0284C918.349 46.6117 918.452 47.108 918.656 47.517C918.865 47.9261 919.154 48.2386 919.526 48.4545C919.897 48.6667 920.33 48.7727 920.827 48.7727C921.149 48.7727 921.442 48.7273 921.707 48.6364C921.973 48.5417 922.202 48.4015 922.395 48.2159C922.588 48.0303 922.736 47.8011 922.838 47.5284L924.446 47.8182C924.317 48.2917 924.086 48.7064 923.753 49.0625C923.423 49.4148 923.009 49.6894 922.509 49.8864C922.012 50.0795 921.446 50.1761 920.81 50.1761Z" fill="#4C4C4C"/>
<rect x="468" y="41" width="159" height="71" rx="3.37931" fill="#EEEEEE"/>
<path d="M501.568 101.909V72.8182H503.432V101.909H501.568ZM506.943 82.125C506.837 81.1326 506.39 80.3598 505.602 79.8068C504.822 79.2538 503.807 78.9773 502.557 78.9773C501.678 78.9773 500.924 79.1098 500.295 79.375C499.667 79.6402 499.186 80 498.852 80.4545C498.519 80.9091 498.348 81.428 498.341 82.0114C498.341 82.4962 498.451 82.9167 498.67 83.2727C498.898 83.6288 499.205 83.9318 499.591 84.1818C499.977 84.4242 500.405 84.6288 500.875 84.7955C501.345 84.9621 501.818 85.1023 502.295 85.2159L504.477 85.7614C505.356 85.9659 506.201 86.2424 507.011 86.5909C507.83 86.9394 508.561 87.3788 509.205 87.9091C509.856 88.4394 510.371 89.0795 510.75 89.8295C511.129 90.5795 511.318 91.4583 511.318 92.4659C511.318 93.8295 510.97 95.0303 510.273 96.0682C509.576 97.0985 508.568 97.9053 507.25 98.4886C505.939 99.0644 504.352 99.3523 502.489 99.3523C500.678 99.3523 499.106 99.072 497.773 98.5114C496.447 97.9508 495.409 97.1326 494.659 96.0568C493.917 94.9811 493.515 93.6705 493.455 92.125H497.602C497.663 92.9356 497.913 93.6098 498.352 94.1477C498.792 94.6856 499.364 95.0871 500.068 95.3523C500.78 95.6174 501.576 95.75 502.455 95.75C503.371 95.75 504.174 95.6136 504.864 95.3409C505.561 95.0606 506.106 94.6742 506.5 94.1818C506.894 93.6818 507.095 93.0985 507.102 92.4318C507.095 91.8258 506.917 91.3258 506.568 90.9318C506.22 90.5303 505.731 90.197 505.102 89.9318C504.481 89.6591 503.754 89.4167 502.92 89.2045L500.273 88.5227C498.356 88.0303 496.841 87.2841 495.727 86.2841C494.621 85.2765 494.068 83.9394 494.068 82.2727C494.068 80.9015 494.439 79.7008 495.182 78.6705C495.932 77.6402 496.951 76.8409 498.239 76.2727C499.527 75.697 500.985 75.4091 502.614 75.4091C504.265 75.4091 505.712 75.697 506.955 76.2727C508.205 76.8409 509.186 77.6326 509.898 78.6477C510.61 79.6553 510.977 80.8144 511 82.125H506.943ZM522.94 99.3182C521.425 99.3182 520.069 99.0341 518.872 98.4659C517.675 97.8902 516.724 97.1023 516.02 96.1023C515.323 95.1023 514.952 93.9583 514.906 92.6705H518.997C519.073 93.625 519.486 94.4053 520.236 95.0114C520.986 95.6098 521.887 95.9091 522.94 95.9091C523.766 95.9091 524.501 95.7197 525.145 95.3409C525.789 94.9621 526.296 94.4356 526.668 93.7614C527.039 93.0871 527.221 92.3182 527.213 91.4545C527.221 90.5758 527.035 89.7955 526.656 89.1136C526.277 88.4318 525.759 87.8977 525.099 87.5114C524.44 87.1174 523.683 86.9205 522.827 86.9205C522.13 86.9129 521.444 87.0417 520.77 87.3068C520.096 87.572 519.562 87.9205 519.168 88.3523L515.361 87.7273L516.577 75.7273H530.077V79.25H520.065L519.395 85.4205H519.531C519.963 84.9129 520.573 84.4924 521.361 84.1591C522.149 83.8182 523.012 83.6477 523.952 83.6477C525.361 83.6477 526.618 83.9811 527.724 84.6477C528.83 85.3068 529.702 86.2159 530.338 87.375C530.974 88.5341 531.293 89.8598 531.293 91.3523C531.293 92.8902 530.937 94.2614 530.224 95.4659C529.52 96.6629 528.539 97.6061 527.281 98.2955C526.031 98.9773 524.584 99.3182 522.94 99.3182ZM543.19 99.3182C541.675 99.3182 540.319 99.0341 539.122 98.4659C537.925 97.8902 536.974 97.1023 536.27 96.1023C535.573 95.1023 535.202 93.9583 535.156 92.6705H539.247C539.323 93.625 539.736 94.4053 540.486 95.0114C541.236 95.6098 542.137 95.9091 543.19 95.9091C544.016 95.9091 544.751 95.7197 545.395 95.3409C546.039 94.9621 546.546 94.4356 546.918 93.7614C547.289 93.0871 547.471 92.3182 547.463 91.4545C547.471 90.5758 547.285 89.7955 546.906 89.1136C546.527 88.4318 546.009 87.8977 545.349 87.5114C544.69 87.1174 543.933 86.9205 543.077 86.9205C542.38 86.9129 541.694 87.0417 541.02 87.3068C540.346 87.572 539.812 87.9205 539.418 88.3523L535.611 87.7273L536.827 75.7273H550.327V79.25H540.315L539.645 85.4205H539.781C540.213 84.9129 540.823 84.4924 541.611 84.1591C542.399 83.8182 543.262 83.6477 544.202 83.6477C545.611 83.6477 546.868 83.9811 547.974 84.6477C549.08 85.3068 549.952 86.2159 550.588 87.375C551.224 88.5341 551.543 89.8598 551.543 91.3523C551.543 92.8902 551.187 94.2614 550.474 95.4659C549.77 96.6629 548.789 97.6061 547.531 98.2955C546.281 98.9773 544.834 99.3182 543.19 99.3182ZM557.148 99.25C556.458 99.25 555.867 99.0076 555.375 98.5227C554.883 98.0379 554.64 97.447 554.648 96.75C554.64 96.0682 554.883 95.4848 555.375 95C555.867 94.5152 556.458 94.2727 557.148 94.2727C557.814 94.2727 558.394 94.5152 558.886 95C559.386 95.4848 559.64 96.0682 559.648 96.75C559.64 97.2121 559.519 97.6326 559.284 98.0114C559.057 98.3902 558.754 98.6932 558.375 98.9205C558.004 99.1402 557.595 99.25 557.148 99.25ZM563.849 99V95.9545L571.929 88.0341C572.702 87.2538 573.346 86.5606 573.861 85.9545C574.376 85.3485 574.762 84.7614 575.02 84.1932C575.277 83.625 575.406 83.0189 575.406 82.375C575.406 81.6402 575.24 81.0114 574.906 80.4886C574.573 79.9583 574.115 79.5492 573.531 79.2614C572.948 78.9735 572.285 78.8295 571.543 78.8295C570.777 78.8295 570.107 78.9886 569.531 79.3068C568.955 79.6174 568.509 80.0606 568.19 80.6364C567.88 81.2121 567.724 81.8977 567.724 82.6932H563.713C563.713 81.2159 564.05 79.9318 564.724 78.8409C565.399 77.75 566.327 76.9053 567.509 76.3068C568.698 75.7083 570.062 75.4091 571.599 75.4091C573.16 75.4091 574.531 75.7008 575.713 76.2841C576.895 76.8674 577.812 77.6667 578.463 78.6818C579.122 79.697 579.452 80.8561 579.452 82.1591C579.452 83.0303 579.285 83.8864 578.952 84.7273C578.618 85.5682 578.031 86.5 577.19 87.5227C576.357 88.5455 575.187 89.7841 573.679 91.2386L569.668 95.3182V95.4773H579.804V99H563.849ZM592.077 99.3182C590.44 99.3182 588.986 99.0379 587.713 98.4773C586.448 97.9167 585.448 97.1364 584.713 96.1364C583.978 95.1364 583.588 93.9811 583.543 92.6705H587.815C587.853 93.2992 588.062 93.8485 588.44 94.3182C588.819 94.7803 589.323 95.1402 589.952 95.3977C590.58 95.6553 591.285 95.7841 592.065 95.7841C592.899 95.7841 593.637 95.6402 594.281 95.3523C594.925 95.0568 595.429 94.6477 595.793 94.125C596.156 93.6023 596.334 93 596.327 92.3182C596.334 91.6136 596.152 90.9924 595.781 90.4545C595.41 89.9167 594.872 89.4962 594.168 89.1932C593.471 88.8902 592.63 88.7386 591.645 88.7386H589.588V85.4886H591.645C592.455 85.4886 593.164 85.3485 593.77 85.0682C594.384 84.7879 594.865 84.3939 595.213 83.8864C595.562 83.3712 595.732 82.7765 595.724 82.1023C595.732 81.4432 595.584 80.8712 595.281 80.3864C594.986 79.8939 594.565 79.5114 594.02 79.2386C593.482 78.9659 592.849 78.8295 592.122 78.8295C591.41 78.8295 590.751 78.9583 590.145 79.2159C589.539 79.4735 589.05 79.8409 588.679 80.3182C588.308 80.7879 588.111 81.3485 588.088 82H584.031C584.062 80.697 584.437 79.553 585.156 78.5682C585.884 77.5758 586.853 76.803 588.065 76.25C589.277 75.6894 590.637 75.4091 592.145 75.4091C593.698 75.4091 595.046 75.7008 596.19 76.2841C597.342 76.8598 598.232 77.6364 598.861 78.6136C599.49 79.5909 599.804 80.6705 599.804 81.8523C599.812 83.1629 599.425 84.2614 598.645 85.1477C597.872 86.0341 596.857 86.6136 595.599 86.8864V87.0682C597.236 87.2955 598.49 87.9015 599.361 88.8864C600.24 89.8636 600.675 91.0795 600.668 92.5341C600.668 93.8371 600.296 95.0038 599.554 96.0341C598.819 97.0568 597.804 97.8598 596.509 98.4432C595.221 99.0265 593.743 99.3182 592.077 99.3182Z" fill="#ED1C24"/>
<path d="M499.251 48.4545H501.439V58.767C501.439 59.6998 501.254 60.4976 500.885 61.1605C500.52 61.8234 500.007 62.33 499.344 62.6804C498.681 63.026 497.904 63.1989 497.014 63.1989C496.195 63.1989 495.459 63.0497 494.805 62.7514C494.157 62.4531 493.643 62.0199 493.264 61.4517C492.89 60.8788 492.703 60.1828 492.703 59.3636H494.884C494.884 59.7661 494.976 60.1141 495.161 60.4077C495.35 60.7012 495.608 60.9309 495.935 61.0966C496.266 61.2576 496.645 61.3381 497.071 61.3381C497.535 61.3381 497.928 61.241 498.25 61.0469C498.577 60.848 498.825 60.5568 498.996 60.1733C499.166 59.7898 499.251 59.321 499.251 58.767V48.4545ZM511.373 58.4759V52.0909H513.504V63H511.416V61.1108H511.302C511.051 61.6932 510.649 62.1785 510.095 62.5668C509.546 62.9503 508.861 63.142 508.042 63.142C507.342 63.142 506.721 62.9882 506.181 62.6804C505.646 62.3679 505.225 61.9062 504.917 61.2955C504.614 60.6847 504.463 59.9295 504.463 59.0298V52.0909H506.586V58.7741C506.586 59.5175 506.792 60.1094 507.204 60.5497C507.616 60.9901 508.151 61.2102 508.809 61.2102C509.207 61.2102 509.602 61.1108 509.995 60.9119C510.393 60.7131 510.722 60.4124 510.983 60.0099C511.248 59.6075 511.378 59.0961 511.373 58.4759ZM518.481 48.4545V63H516.357V48.4545H518.481ZM522.68 67.0909C522.363 67.0909 522.074 67.0649 521.814 67.0128C521.553 66.9654 521.359 66.9134 521.231 66.8565L521.743 65.1165C522.131 65.2206 522.476 65.2656 522.779 65.2514C523.083 65.2372 523.35 65.1236 523.582 64.9105C523.819 64.6974 524.027 64.3494 524.207 63.8665L524.47 63.142L520.478 52.0909H522.751L525.514 60.5568H525.627L528.39 52.0909H530.67L526.174 64.456C525.966 65.0241 525.701 65.5047 525.379 65.8977C525.057 66.2955 524.673 66.5938 524.228 66.7926C523.783 66.9915 523.267 67.0909 522.68 67.0909Z" fill="black"/>
<defs>
<linearGradient id="paint0_linear_1_303" x1="555" y1="45" x2="555" y2="411" gradientUnits="userSpaceOnUse">
<stop stop-color="#FD3C3C"/>
<stop offset="1" stop-color="#D9D9D9" stop-opacity="0"/>
</linearGradient>
</defs>
</svg>
