<svg width="77" height="38" viewBox="0 0 77 38" fill="none" xmlns="http://www.w3.org/2000/svg">
<path d="M0.550023 37.494V2.19725H13.7863C16.4979 2.19725 18.7729 2.66833 20.6113 3.6105C22.4611 4.55267 23.8572 5.874 24.7993 7.57449C25.753 9.2635 26.2298 11.234 26.2298 13.486C26.2298 15.7495 25.7472 17.7143 24.7821 19.3803C23.8284 21.0348 22.4209 22.3159 20.5596 23.2236C18.6982 24.1199 16.4117 24.568 13.7001 24.568H4.27273V19.2597H12.8384C14.424 19.2597 15.7223 19.0413 16.7335 18.6047C17.7446 18.1566 18.4914 17.5075 18.974 16.6572C19.468 15.7955 19.7151 14.7384 19.7151 13.486C19.7151 12.2336 19.468 11.1651 18.974 10.2803C18.4799 9.38414 17.7273 8.70624 16.7162 8.24665C15.7051 7.77557 14.401 7.54002 12.8039 7.54002H6.94412V37.494H0.550023ZM18.7844 21.5002L27.5224 37.494H20.3872L11.8043 21.5002H18.7844ZM31.8397 37.494V11.0214H38.0787V37.494H31.8397ZM34.9764 7.26427C33.9883 7.26427 33.1381 6.93681 32.4257 6.28189C31.7133 5.61548 31.3571 4.81693 31.3571 3.88626C31.3571 2.94409 31.7133 2.14555 32.4257 1.49062C33.1381 0.824215 33.9883 0.491011 34.9764 0.491011C35.976 0.491011 36.8263 0.824215 37.5272 1.49062C38.2395 2.14555 38.5957 2.94409 38.5957 3.88626C38.5957 4.81693 38.2395 5.61548 37.5272 6.28189C36.8263 6.93681 35.976 7.26427 34.9764 7.26427ZM76.3097 19.8456C76.3097 23.6488 75.5973 26.9061 74.1726 29.6177C72.7593 32.3178 70.829 34.386 68.3817 35.8222C65.9458 37.2585 63.1825 37.9766 60.0918 37.9766C57.001 37.9766 54.232 37.2585 51.7846 35.8222C49.3488 34.3745 47.4185 32.3006 45.9937 29.6005C44.5805 26.8889 43.8739 23.6373 43.8739 19.8456C43.8739 16.0425 44.5805 12.7909 45.9937 10.0908C47.4185 7.37917 49.3488 5.30525 51.7846 3.86902C54.232 2.43279 57.001 1.71468 60.0918 1.71468C63.1825 1.71468 65.9458 2.43279 68.3817 3.86902C70.829 5.30525 72.7593 7.37917 74.1726 10.0908C75.5973 12.7909 76.3097 16.0425 76.3097 19.8456ZM69.8811 19.8456C69.8811 17.1685 69.4617 14.9108 68.623 13.0724C67.7957 11.2225 66.6467 9.8265 65.176 8.88434C63.7053 7.93068 62.0106 7.45385 60.0918 7.45385C58.173 7.45385 56.4782 7.93068 55.0075 8.88434C53.5368 9.8265 52.3821 11.2225 51.5433 13.0724C50.7161 14.9108 50.3024 17.1685 50.3024 19.8456C50.3024 22.5228 50.7161 24.7863 51.5433 26.6361C52.3821 28.4745 53.5368 29.8705 55.0075 30.8242C56.4782 31.7663 58.173 32.2374 60.0918 32.2374C62.0106 32.2374 63.7053 31.7663 65.176 30.8242C66.6467 29.8705 67.7957 28.4745 68.623 26.6361C69.4617 24.7863 69.8811 22.5228 69.8811 19.8456Z" fill="#ED1C24"/>
</svg>
